<svg width="365" height="20" viewBox="0 0 365 20" fill="none" xmlns="http://www.w3.org/2000/svg">
<path d="M8.30219 2.62783C8.94044 1.72621 10.2783 1.72621 10.9166 2.62783L12.7415 5.2058C12.9447 5.49286 13.2368 5.70505 13.5726 5.8096L16.5883 6.74858C17.643 7.07698 18.0564 8.34937 17.3962 9.23499L15.5083 11.7672C15.2981 12.0492 15.1865 12.3925 15.1909 12.7442L15.2298 15.9025C15.2434 17.0071 14.161 17.7935 13.1147 17.4392L10.123 16.4263C9.78987 16.3135 9.42888 16.3135 9.09575 16.4263L6.10405 17.4392C5.05774 17.7935 3.97538 17.0071 3.98898 15.9025L4.02787 12.7442C4.0322 12.3925 3.92065 12.0492 3.71043 11.7672L1.82257 9.23499C1.16232 8.34937 1.57574 7.07698 2.63046 6.74858L5.64619 5.8096C5.982 5.70505 6.27405 5.49286 6.47726 5.2058L8.30219 2.62783Z" fill="#F8CC46"/>
<path d="M31.5209 2.62783C32.1592 1.72621 33.4971 1.72621 34.1353 2.62783L35.9602 5.2058C36.1635 5.49286 36.4555 5.70505 36.7913 5.8096L39.807 6.74858C40.8618 7.07698 41.2752 8.34937 40.6149 9.23499L38.7271 11.7672C38.5169 12.0492 38.4053 12.3925 38.4096 12.7442L38.4485 15.9025C38.4621 17.0071 37.3798 17.7935 36.3334 17.4392L33.3418 16.4263C33.0086 16.3135 32.6476 16.3135 32.3145 16.4263L29.3228 17.4392C28.2765 17.7935 27.1941 17.0071 27.2077 15.9025L27.2466 12.7442C27.251 12.3925 27.1394 12.0492 26.9292 11.7672L25.0413 9.23499C24.3811 8.34937 24.7945 7.07698 25.8492 6.74858L28.8649 5.8096C29.2007 5.70505 29.4928 5.49286 29.696 5.2058L31.5209 2.62783Z" fill="#F8CC46"/>
<path d="M54.7397 2.62783C55.3779 1.72621 56.7158 1.72621 57.3541 2.62783L59.179 5.2058C59.3822 5.49286 59.6743 5.70505 60.0101 5.8096L63.0258 6.74858C64.0805 7.07698 64.4939 8.34937 63.8337 9.23499L61.9458 11.7672C61.7356 12.0492 61.624 12.3925 61.6284 12.7442L61.6673 15.9025C61.6809 17.0071 60.5985 17.7935 59.5522 17.4392L56.5605 16.4263C56.2274 16.3135 55.8664 16.3135 55.5332 16.4263L52.5416 17.4392C51.4952 17.7935 50.4129 17.0071 50.4265 15.9025L50.4654 12.7442C50.4697 12.3925 50.3581 12.0492 50.1479 11.7672L48.2601 9.23499C47.5998 8.34937 48.0132 7.07698 49.068 6.74858L52.0837 5.8096C52.4195 5.70505 52.7115 5.49286 52.9148 5.2058L54.7397 2.62783Z" fill="#F8CC46"/>
<path d="M77.9584 2.62783C78.5967 1.72621 79.9346 1.72621 80.5728 2.62783L82.3977 5.2058C82.601 5.49286 82.893 5.70505 83.2288 5.8096L86.2445 6.74858C87.2993 7.07698 87.7127 8.34937 87.0524 9.23499L85.1646 11.7672C84.9544 12.0492 84.8428 12.3925 84.8471 12.7442L84.886 15.9025C84.8996 17.0071 83.8173 17.7935 82.7709 17.4392L79.7793 16.4263C79.4461 16.3135 79.0851 16.3135 78.752 16.4263L75.7603 17.4392C74.714 17.7935 73.6316 17.0071 73.6452 15.9025L73.6841 12.7442C73.6885 12.3925 73.5769 12.0492 73.3667 11.7672L71.4788 9.23499C70.8186 8.34937 71.232 7.07698 72.2867 6.74858L75.3024 5.8096C75.6382 5.70505 75.9303 5.49286 76.1335 5.2058L77.9584 2.62783Z" fill="#F8CC46"/>
<path d="M101.177 2.62783C101.815 1.72621 103.153 1.72621 103.792 2.62783L105.616 5.2058C105.82 5.49286 106.112 5.70505 106.448 5.8096L109.463 6.74858C110.518 7.07698 110.931 8.34937 110.271 9.23499L108.383 11.7672C108.173 12.0492 108.062 12.3925 108.066 12.7442L108.105 15.9025C108.118 17.0071 107.036 17.7935 105.99 17.4392L102.998 16.4263C102.665 16.3135 102.304 16.3135 101.971 16.4263L98.9791 17.4392C97.9327 17.7935 96.8504 17.0071 96.864 15.9025L96.9029 12.7442C96.9072 12.3925 96.7956 12.0492 96.5854 11.7672L94.6976 9.23499C94.0373 8.34937 94.4507 7.07698 95.5055 6.74858L98.5212 5.8096C98.857 5.70505 99.149 5.49286 99.3523 5.2058L101.177 2.62783Z" fill="#CFDAEF"/>
<path fill-rule="evenodd" clip-rule="evenodd" d="M102.486 2.83984C102.244 2.84101 102.002 2.95038 101.843 3.16797L99.6876 6.11611C99.5887 6.25128 99.45 6.35207 99.2909 6.40429L95.821 7.54339C95.306 7.71243 95.1042 8.3335 95.4214 8.77294L97.5592 11.7341C97.6572 11.8699 97.7102 12.0329 97.7107 12.2004L97.7217 15.8525C97.7234 16.3945 98.2517 16.7783 98.7677 16.6124L102.244 15.4944C102.323 15.4691 102.404 15.4563 102.486 15.4559V2.83984Z" fill="#F8CC46"/>
</svg>
