<svg width="58" height="58" viewBox="0 0 58 58" fill="none" xmlns="http://www.w3.org/2000/svg">
<path d="M35.7856 7.70917C36.6992 6.65617 37.3959 5.43308 37.8355 4.11011C38.2751 2.78715 38.449 1.39038 38.3473 0C35.5425 0.22641 32.9388 1.54559 31.0973 3.67333C30.2155 4.69311 29.5472 5.87946 29.1321 7.16214C28.717 8.44482 28.5635 9.79776 28.6806 11.1408C30.0488 11.1522 31.4013 10.8486 32.6333 10.2536C33.8654 9.6585 34.944 8.7879 35.7856 7.70917ZM41.8756 25.6892C41.8918 23.8374 42.3796 22.0202 43.2929 20.4092C44.2062 18.7983 45.515 17.4465 47.0956 16.4817C46.0981 15.0443 44.7794 13.8592 43.2441 13.0202C41.7087 12.1812 39.9991 11.7115 38.2506 11.6483C34.4806 11.2617 31.0006 13.8475 28.9948 13.8475C26.989 13.8475 24.1615 11.6967 21.0198 11.745C18.9659 11.8127 16.9647 12.4115 15.2112 13.483C13.4577 14.5546 12.0119 16.0623 11.0148 17.8592C6.76147 25.2542 9.9273 36.25 14.1806 42.2192C16.114 45.1433 18.5306 48.4542 21.7206 48.3333C24.9106 48.2125 25.9498 46.3517 29.6473 46.3517C33.3448 46.3517 34.4806 48.3333 37.6223 48.2608C40.764 48.1883 42.9873 45.2642 45.0173 42.34C46.4553 40.217 47.5786 37.8972 48.3523 35.4525C46.437 34.6357 44.803 33.2758 43.652 31.5407C42.501 29.8056 41.8834 27.7713 41.8756 25.6892Z" fill="white"/>
</svg>
