<svg width="30" height="36" viewBox="0 0 30 36" fill="none" xmlns="http://www.w3.org/2000/svg">
<path d="M20.4111 5.9229C21.0778 5.1545 21.5862 4.26197 21.907 3.29657C22.2278 2.33116 22.3547 1.31189 22.2805 0.297295C20.2337 0.462513 18.3337 1.42516 16.9899 2.97784C16.3464 3.72199 15.8588 4.58771 15.5558 5.52372C15.2529 6.45973 15.1409 7.44701 15.2264 8.42709C16.2248 8.43541 17.2117 8.21387 18.1108 7.77963C19.0099 7.34539 19.797 6.71009 20.4111 5.9229ZM24.8552 19.0434C24.867 17.6921 25.223 16.3661 25.8894 15.1905C26.5559 14.0149 27.5109 13.0286 28.6644 12.3245C27.9364 11.2756 26.9741 10.4108 25.8538 9.79853C24.7334 9.18631 23.4858 8.84355 22.2099 8.79743C19.4588 8.51527 16.9194 10.4022 15.4557 10.4022C13.9919 10.4022 11.9286 8.8327 9.63607 8.86797C8.13731 8.91734 6.67693 9.35431 5.39737 10.1363C4.11781 10.9182 3.06276 12.0185 2.33512 13.3297C-0.768664 18.726 1.54154 26.75 4.64532 31.1059C6.05613 33.2397 7.81965 35.6557 10.1475 35.5676C12.4753 35.4794 13.2336 34.1215 15.9318 34.1215C18.63 34.1215 19.4588 35.5676 21.7514 35.5147C24.044 35.4618 25.6664 33.3279 27.1478 31.1941C28.1971 29.6449 29.0168 27.952 29.5814 26.168C28.1838 25.572 26.9914 24.5796 26.1514 23.3135C25.3115 22.0473 24.8609 20.5628 24.8552 19.0434Z" fill="white"/>
</svg>
