<svg width="13" height="16" viewBox="0 0 13 16" fill="none" xmlns="http://www.w3.org/2000/svg">
<path d="M8.84939 2.74351C9.1457 2.402 9.37163 2.00532 9.51421 1.57625C9.65678 1.14718 9.71319 0.694173 9.68021 0.24324C8.77053 0.316671 7.9261 0.744514 7.32885 1.43459C7.04285 1.76533 6.82612 2.15009 6.69149 2.5661C6.55686 2.9821 6.50707 3.42089 6.54507 3.85648C6.98881 3.86018 7.42744 3.76172 7.82703 3.56872C8.22661 3.37573 8.57642 3.09337 8.84939 2.74351ZM10.8245 8.57486C10.8298 7.97428 10.988 7.38494 11.2842 6.86245C11.5804 6.33997 12.0049 5.90158 12.5175 5.58864C12.194 5.12248 11.7663 4.73811 11.2683 4.46601C10.7704 4.19391 10.2159 4.04158 9.64885 4.02108C8.42615 3.89567 7.2975 4.73432 6.64696 4.73432C5.99642 4.73432 5.07939 4.03675 4.06048 4.05243C3.39436 4.07437 2.7453 4.26858 2.17661 4.61612C1.60792 4.96365 1.13901 5.45264 0.815611 6.0354C-0.563849 8.43378 0.462908 12 1.84237 13.9359C2.46939 14.8843 3.25318 15.9581 4.28777 15.9189C5.32237 15.8797 5.65939 15.2762 6.85858 15.2762C8.05777 15.2762 8.42615 15.9189 9.44507 15.8954C10.464 15.8719 11.1851 14.9235 11.8434 13.9751C12.3098 13.2866 12.6742 12.5342 12.9251 11.7413C12.3039 11.4764 11.7739 11.0354 11.4006 10.4726C11.0273 9.90991 10.8271 9.25015 10.8245 8.57486Z" fill="white"/>
</svg>
