<svg width="22" height="26" viewBox="0 0 22 26" fill="none" xmlns="http://www.w3.org/2000/svg">
<path d="M14.6735 4.15654C15.1459 3.61209 15.506 2.97969 15.7333 2.29565C15.9606 1.61161 16.0506 0.889411 15.998 0.170517C14.5477 0.287582 13.2015 0.969667 12.2494 2.06981C11.7934 2.59709 11.4479 3.21049 11.2333 3.8737C11.0186 4.53691 10.9393 5.23645 10.9998 5.93089C11.7073 5.93678 12.4065 5.77981 13.0436 5.47213C13.6806 5.16445 14.2383 4.7143 14.6735 4.15654ZM17.8223 13.4531C17.8307 12.4956 18.0829 11.5561 18.5551 10.7231C19.0274 9.89016 19.704 9.19125 20.5213 8.69237C20.0055 7.94919 19.3237 7.33641 18.5299 6.90262C17.736 6.46883 16.852 6.22597 15.948 6.19329C13.9987 5.99336 12.1994 7.33037 11.1623 7.33037C10.1252 7.33037 8.6632 6.21828 7.0388 6.24327C5.97685 6.27825 4.9421 6.58787 4.03547 7.14192C3.12883 7.69597 2.38128 8.47555 1.86571 9.4046C-0.333479 13.2282 1.30342 18.9136 3.5026 21.9999C4.50223 23.5119 5.75177 25.2238 7.40116 25.1613C9.05055 25.0988 9.58785 24.1367 11.4996 24.1367C13.4114 24.1367 13.9987 25.1613 15.6231 25.1238C17.2475 25.0863 18.3971 23.5744 19.4467 22.0624C20.1902 20.9647 20.771 19.7653 21.1711 18.5012C20.1808 18.0789 19.3359 17.3758 18.7408 16.4786C18.1456 15.5815 17.8263 14.5297 17.8223 13.4531Z" fill="white"/>
</svg>
