<svg width="95" height="94" viewBox="0 0 95 94" fill="none" xmlns="http://www.w3.org/2000/svg">
<rect x="0.5" width="94" height="94" rx="47" fill="url(#paint0_linear_2533_22003)" fill-opacity="0.3"/>
<ellipse cx="47.5022" cy="29.1782" rx="6.30296" ry="6.48048" fill="#000059"/>
<ellipse cx="32.8366" cy="33.2288" rx="4.72722" ry="4.86036" fill="#000059"/>
<ellipse cx="62.4733" cy="33.2288" rx="4.72722" ry="4.86036" fill="#000059"/>
<path d="M52.2305 50.3679C52.2305 44.9288 56.6397 40.5195 62.0788 40.5195H63.1831C68.0123 40.5195 71.9272 44.4344 71.9272 49.2636C71.9272 53.8295 68.2259 57.5308 63.6601 57.5308H52.2305V50.3679Z" fill="#00BE7E"/>
<path d="M23.0781 49.2636C23.0781 44.4344 26.993 40.5195 31.8222 40.5195H32.9265C38.3656 40.5195 42.7749 44.9288 42.7749 50.3679V57.5308H31.3453C26.7795 57.5308 23.0781 53.8295 23.0781 49.2636Z" fill="#00BE7E"/>
<path d="M35.6836 49.0974C35.6836 42.5704 40.9747 37.2793 47.5016 37.2793C54.0286 37.2793 59.3197 42.5704 59.3197 49.0974V57.5308H35.6836V49.0974Z" fill="#195EF7"/>
<path d="M38.8354 63.7412V61.8732C38.8354 61.1761 37.9882 60.832 37.5022 61.3317L33.8469 65.0899C33.5537 65.3914 33.5537 65.8714 33.8469 66.1728L37.5022 69.931C37.9882 70.4307 38.8354 70.0866 38.8354 69.3896V67.5215H56.1685V69.3896C56.1685 70.0866 57.0158 70.4307 57.5018 69.931L61.157 66.1728C61.4502 65.8714 61.4502 65.3914 61.157 65.0899L57.5018 61.3317C57.0158 60.832 56.1685 61.1761 56.1685 61.8732V63.7412H38.8354Z" fill="#000059"/>
<path d="M47.1157 42.7213C47.3001 42.4446 47.7066 42.4446 47.8911 42.7213L49.3557 44.9186C49.4156 45.0084 49.5049 45.0747 49.6083 45.106L52.1123 45.865C52.4217 45.9587 52.5439 46.3313 52.3502 46.5901L50.7475 48.7317C50.6847 48.8157 50.652 48.9185 50.6548 49.0234L50.7267 51.712C50.7355 52.0408 50.4099 52.275 50.101 52.162L47.6634 51.2708C47.56 51.233 47.4467 51.233 47.3434 51.2708L44.9058 52.162C44.5968 52.275 44.2712 52.0409 44.28 51.712L44.3519 49.0234C44.3547 48.9185 44.3221 48.8157 44.2592 48.7317L42.6565 46.5901C42.4629 46.3313 42.5851 45.9587 42.8944 45.865L45.3985 45.106C45.5018 45.0747 45.5911 45.0084 45.651 44.9186L47.1157 42.7213Z" fill="white"/>
<defs>
<linearGradient id="paint0_linear_2533_22003" x1="47.5" y1="0" x2="47.5" y2="94" gradientUnits="userSpaceOnUse">
<stop stop-color="#195EF7"/>
<stop offset="1" stop-color="#00BE7E"/>
</linearGradient>
</defs>
</svg>
