<svg width="52" height="52" viewBox="0 0 52 52" fill="none" xmlns="http://www.w3.org/2000/svg">
<rect width="52" height="52" rx="26" transform="matrix(-1 0 0 1 52 0)" fill="#112BF4"/>
<path d="M26.6758 33.1998C26.823 33.0498 26.8966 32.8705 26.8966 32.6618C26.8966 32.4538 26.8312 32.2748 26.7003 32.1248L21.4983 26.8498H32.9084C33.1047 26.8498 33.2765 26.7788 33.4237 26.6368C33.5709 26.4955 33.6445 26.3165 33.6445 26.0998C33.6445 25.8831 33.5709 25.7038 33.4237 25.5618C33.2765 25.4205 33.1047 25.3498 32.9084 25.3498H21.4983L26.7003 20.0748C26.8312 19.9248 26.8966 19.7458 26.8966 19.5378C26.8966 19.3291 26.823 19.1498 26.6758 18.9998C26.5286 18.8665 26.3568 18.7998 26.1605 18.7998C25.9642 18.7998 25.7924 18.8665 25.6452 18.9998L19.3144 25.4748C19.2163 25.5581 19.1466 25.6538 19.1054 25.7618C19.0648 25.8705 19.0445 25.9831 19.0445 26.0998C19.0445 26.2165 19.0648 26.3288 19.1054 26.4368C19.1466 26.5455 19.2163 26.6415 19.3144 26.7248L25.6452 33.1998C25.7924 33.3331 25.9642 33.3998 26.1605 33.3998C26.3568 33.3998 26.5286 33.3331 26.6758 33.1998Z" fill="white"/>
</svg>
