<svg width="52" height="52" viewBox="0 0 52 52" fill="none" xmlns="http://www.w3.org/2000/svg">
<rect width="52" height="52" rx="26" fill="#112BF4"/>
<path d="M25.3242 33.1998C25.177 33.0498 25.1034 32.8705 25.1034 32.6618C25.1034 32.4538 25.1688 32.2748 25.2997 32.1248L30.5017 26.8498H19.0916C18.8953 26.8498 18.7235 26.7788 18.5763 26.6368C18.4291 26.4955 18.3555 26.3165 18.3555 26.0998C18.3555 25.8831 18.4291 25.7038 18.5763 25.5618C18.7235 25.4205 18.8953 25.3498 19.0916 25.3498H30.5017L25.2997 20.0748C25.1688 19.9248 25.1034 19.7458 25.1034 19.5378C25.1034 19.3291 25.177 19.1498 25.3242 18.9998C25.4714 18.8665 25.6432 18.7998 25.8395 18.7998C26.0358 18.7998 26.2076 18.8665 26.3548 18.9998L32.6856 25.4748C32.7837 25.5581 32.8534 25.6538 32.8946 25.7618C32.9352 25.8705 32.9555 25.9831 32.9555 26.0998C32.9555 26.2165 32.9352 26.3288 32.8946 26.4368C32.8534 26.5455 32.7837 26.6415 32.6856 26.7248L26.3548 33.1998C26.2076 33.3331 26.0358 33.3998 25.8395 33.3998C25.6432 33.3998 25.4714 33.3331 25.3242 33.1998Z" fill="white"/>
</svg>
