<svg width="40" height="41" viewBox="0 0 40 41" fill="none" xmlns="http://www.w3.org/2000/svg">
<path d="M35 7.31508H11.6667C10.7826 7.31508 9.93476 7.66627 9.30964 8.29139C8.68452 8.91652 8.33333 9.76436 8.33333 10.6484C8.33333 11.5325 8.68452 12.3803 9.30964 13.0054C9.93476 13.6306 10.7826 13.9818 11.6667 13.9818H35V35.6484C35 36.0904 34.8244 36.5144 34.5118 36.8269C34.1993 37.1395 33.7754 37.3151 33.3333 37.3151H11.6667C9.89856 37.3151 8.20286 36.6127 6.95262 35.3625C5.70238 34.1122 5 32.4165 5 30.6484V10.6484C5 8.88031 5.70238 7.18461 6.95262 5.93437C8.20286 4.68413 9.89856 3.98175 11.6667 3.98175H33.3333C33.7754 3.98175 34.1993 4.15735 34.5118 4.46991C34.8244 4.78247 35 5.20639 35 5.64842V7.31508ZM33.3333 12.3151H11.6667C11.2246 12.3151 10.8007 12.1395 10.4882 11.8269C10.1756 11.5144 10 11.0904 10 10.6484C10 10.2064 10.1756 9.78247 10.4882 9.46991C10.8007 9.15735 11.2246 8.98175 11.6667 8.98175H33.3333V12.3151Z" fill="#9747FF"/>
</svg>
