<svg width="107" height="22" viewBox="0 0 107 22" fill="none" xmlns="http://www.w3.org/2000/svg">
<path d="M33.8307 16.5765C30.5545 17.3482 27.5968 15.6459 26.8005 12.3094L26.7778 12.264C26.027 9.15449 27.6423 6.09035 30.8048 5.31864C34.4905 4.45614 36.7657 7.04364 37.3117 9.31337C37.5165 10.1986 37.0387 10.9476 36.2196 11.1519L30.0995 12.6045C30.7365 13.9209 31.8741 14.4203 33.2847 14.1025C34.172 13.8982 34.7863 13.467 35.3096 12.8542C35.4916 12.6272 35.6736 12.5137 36.0149 12.4229C36.7202 12.264 37.3345 12.6499 37.4937 13.3535C37.5847 13.7621 37.471 14.1025 37.3117 14.3522C36.5382 15.3963 35.4461 16.1907 33.8307 16.5765ZM34.263 9.56305C33.7397 8.2239 32.7159 7.49758 31.4191 7.79265C30.1223 8.11041 29.5307 9.19989 29.6217 10.6752L34.263 9.56305Z" fill="#112BF4"/>
<path d="M50.0302 15.0122C50.0302 15.8974 49.3477 16.601 48.4604 16.601C47.5731 16.601 46.8678 15.92 46.8678 15.0349V14.8987C46.0942 15.9654 45.0704 16.7145 43.3868 16.7145C40.7931 16.7372 38.2905 14.6944 38.2677 10.972V10.9266C38.245 7.20425 40.6794 5.13879 43.3413 5.13879C45.0249 5.13879 46.0715 5.9105 46.845 6.7957L46.8223 2.75557C46.8223 1.87037 47.5048 1.16675 48.3921 1.16675C49.2794 1.16675 49.9847 1.84767 49.9847 2.73287L50.0302 15.0122ZM41.4302 10.9266V10.972C41.4302 12.8332 42.7043 14.0589 44.1831 14.0362C45.6619 14.0362 46.8905 12.7878 46.8905 10.9493V10.9039C46.8905 9.04274 45.6392 7.81708 44.1604 7.83978C42.6588 7.81708 41.4074 9.04274 41.4302 10.9266Z" fill="#112BF4"/>
<path d="M61.8169 14.9666C61.8169 15.8518 61.1343 16.5555 60.247 16.5555C59.3597 16.5555 58.6544 15.8745 58.6544 14.9893V14.8532C57.9264 15.8064 56.9708 16.6689 55.3782 16.6689C52.9438 16.6916 51.556 15.1255 51.556 12.538L51.5332 6.77288C51.5332 5.88769 52.2157 5.18407 53.1031 5.18407C53.9904 5.18407 54.6957 5.86499 54.6957 6.75019L54.7184 11.5166C54.7184 13.0147 55.4237 13.7864 56.6523 13.7637C57.8809 13.7637 58.6316 12.9693 58.6089 11.4939L58.5861 6.72749C58.5861 5.84229 59.2687 5.13867 60.156 5.13867C61.0433 5.13867 61.7486 5.81959 61.7486 6.70479L61.7941 14.9666H61.8169Z" fill="#112BF4"/>
<path d="M63.3633 2.6612C63.3633 1.77601 64.0458 1.07239 64.9331 1.07239C65.8204 1.07239 66.5257 1.75331 66.5257 2.63851L66.5712 9.56121L70.53 5.79344C71.0078 5.36219 71.349 5.06713 71.9406 5.06713C72.8051 5.06713 73.3511 5.74805 73.3511 6.47436C73.3511 7.0418 73.0554 7.42765 72.6231 7.8589L70.1205 10.0152L73.1236 14.0326C73.3966 14.3958 73.5332 14.7362 73.5332 15.054C73.5332 15.9165 72.8734 16.5066 72.0543 16.5066C71.3945 16.5066 71.076 16.3023 70.6665 15.7803L67.8681 11.9898L66.594 13.1474V14.9632C66.594 15.8484 65.9114 16.552 65.0241 16.552C64.1368 16.552 63.4315 15.8711 63.4315 14.9859L63.3633 2.6612Z" fill="#112BF4"/>
<path d="M73.6916 10.8339V10.7885C73.6688 7.58813 76.2625 4.95523 79.7434 4.95523C83.2017 4.93253 85.7953 7.47464 85.8181 10.6977V10.7431C85.8408 13.9434 83.2472 16.5763 79.7662 16.5763C76.3307 16.599 73.7143 14.0569 73.6916 10.8339ZM82.6784 10.7885V10.7431C82.6784 9.10885 81.4725 7.65622 79.7207 7.67892C77.9006 7.67892 76.8313 9.06346 76.8313 10.7431V10.7885C76.8313 12.4227 78.0371 13.8753 79.7889 13.8526C81.6091 13.8299 82.7011 12.4454 82.6784 10.7885Z" fill="#112BF4"/>
<path d="M87.2055 19.3899C86.7277 19.231 86.2044 18.8452 86.1817 18.0734C86.1817 17.3017 86.7732 16.7797 87.433 16.7797C87.6833 16.7797 87.7971 16.8024 87.9563 16.8705C88.2293 16.9613 88.3886 17.0067 88.6161 16.984C89.1849 16.984 89.4352 16.8705 89.7309 16.3258L89.8219 16.0761L85.9542 7.2468C85.8632 7.01982 85.7949 6.74745 85.7949 6.52048C85.7949 5.63528 86.4547 4.99976 87.3648 4.99976C88.1838 4.99976 88.6161 5.43101 88.8891 6.18002L91.3463 12.6715L92.9616 7.97311C93.2119 7.31489 93.6669 6.77015 94.486 6.74745C95.305 6.74745 95.9876 7.36028 96.0103 8.20009C96.0103 8.44976 95.9193 8.79022 95.8738 8.9491L92.7114 16.53C91.7786 18.7998 90.8685 19.6623 88.9574 19.6623C88.2066 19.685 87.7288 19.5715 87.2055 19.3899Z" fill="#112BF4"/>
<path d="M96.717 13.0353V12.99C96.6943 10.5613 98.5599 9.40377 101.199 9.40377C102.359 9.40377 103.11 9.58535 103.929 9.85772V9.67614C103.929 8.33699 103.11 7.63337 101.518 7.65607C100.63 7.65607 99.925 7.79225 99.3334 7.99653C99.1742 8.06462 99.0149 8.08732 98.8784 8.08732C98.1503 8.08732 97.5588 7.54258 97.5588 6.81626C97.5588 6.24883 97.9001 5.77218 98.4006 5.56791C99.4017 5.15935 100.471 4.97778 101.973 4.95508C103.724 4.95508 104.93 5.36363 105.749 6.18074C106.591 6.99784 106.978 8.2462 106.978 9.74423L107.001 14.8284C107.001 15.6909 106.318 16.3492 105.454 16.3492C104.543 16.3492 103.929 15.7136 103.929 15.0554V15.0327C103.178 15.8952 102.132 16.4627 100.562 16.4627C98.4689 16.44 96.717 15.2597 96.717 13.0353ZM103.997 12.2636V11.6962C103.429 11.4465 102.746 11.2876 101.973 11.2876C100.607 11.2876 99.7884 11.8551 99.7884 12.8311V12.8765C99.7884 13.739 100.516 14.2156 101.54 14.2156C103.019 14.2156 103.997 13.4212 103.997 12.2636Z" fill="#112BF4"/>
<path d="M5.41602 10.0151L6.37158 9.81079L5.41602 10.0151C5.41602 10.0378 5.41602 10.0151 5.41602 10.0151Z" fill="#57CC99"/>
<path d="M19.1112 6.83896L11.8307 8.51857L13.8101 8.06462C13.6736 7.70147 13.5143 7.361 13.3323 7.04324C12.3313 5.27285 10.6704 4.36495 8.69105 4.8189C6.84818 5.25015 5.80161 6.5666 5.48309 8.38239C5.48309 8.45048 5.46034 8.49587 5.46034 8.56396C5.46034 8.63206 5.43759 8.70015 5.43759 8.74554C5.43759 8.81364 5.41484 8.88173 5.41484 8.94982L0 10.2436C0 5.59061 2.82118 1.43699 7.64448 0.302119C13.2868 -1.01433 17.0863 2.186 18.7017 5.74949C18.8609 6.11265 18.9974 6.47581 19.1112 6.83896Z" fill="#112BF4"/>
<path d="M19.2484 16.78C17.8605 18.6639 15.8812 20.0938 12.969 20.7747C7.64516 22.0231 2.82186 19.5945 0.865234 14.7145L6.28007 13.4889L7.09913 13.3073L6.28007 13.5116C7.41764 15.9175 9.51078 16.8481 11.9907 16.258C13.5605 15.8721 14.7209 15.1004 15.6537 13.9882C15.9949 13.6024 16.3135 13.3754 16.905 13.2165C18.1791 12.8988 19.2939 13.6251 19.5897 14.9188C19.7717 15.6905 19.5669 16.2807 19.2484 16.78Z" fill="#00BE7E"/>
<path d="M6.28007 13.5146L0.865234 14.7176L6.28007 13.5146Z" fill="#439EF9"/>
<path d="M17.8378 10.7655L10.2161 12.604L6.30283 13.5346L0.910743 14.8283C0.887992 14.8056 0.887991 14.7603 0.86524 14.7376C0.637726 14.1928 0.455714 13.6027 0.319206 12.9899L0.296454 12.9218C0.182697 12.3997 0.0916916 11.855 0.0461888 11.3103H0.0689403C0.0461889 10.9698 0.0234375 10.6066 0.0234375 10.2662L5.43828 8.97242L13.333 7.04314L18.6796 5.74939C18.8389 6.11255 18.9754 6.47571 19.1119 6.83886C19.2029 7.11123 19.2711 7.3609 19.3166 7.61058C19.6579 9.04051 18.9981 10.2662 17.8378 10.7655Z" fill="#195EF7"/>
</svg>
