<svg width="95" height="94" viewBox="0 0 95 94" fill="none" xmlns="http://www.w3.org/2000/svg">
<rect x="0.5" width="94" height="94" rx="47" fill="url(#paint0_linear_2533_13179)" fill-opacity="0.3"/>
<path d="M70.5508 25.5366V58.0206C70.5508 59.47 68.7699 60.1635 67.7897 59.0957L59.0993 49.6287C58.7982 49.3007 58.3733 49.114 57.9281 49.114H37.9586C37.0805 49.114 36.3687 48.4022 36.3687 47.5241V25.5366C36.3687 24.6586 37.0805 23.9468 37.9586 23.9468H68.9609C69.839 23.9468 70.5508 24.6586 70.5508 25.5366Z" fill="#000059"/>
<path d="M24.4453 32.6907V65.9068C24.4453 67.3642 26.2429 68.0535 27.2174 66.9698L35.8956 57.3192C36.1971 56.9839 36.6268 56.7924 37.0778 56.7924H57.0375C57.9156 56.7924 58.6274 56.0806 58.6274 55.2025V32.6907C58.6274 31.8126 57.9156 31.1008 57.0375 31.1008H26.0352C25.1571 31.1008 24.4453 31.8126 24.4453 32.6907Z" fill="#195EF7"/>
<path d="M36.3711 31.1008H57.0393C57.9174 31.1008 58.6292 31.8126 58.6292 32.6907V49.3843H37.961C37.0829 49.3843 36.3711 48.6725 36.3711 47.7944V31.1008Z" fill="#00BE7E"/>
<path d="M41.9336 39.4478L45.1133 43.4225L52.6652 36.6655" stroke="white" stroke-width="2.3848" stroke-linecap="round" stroke-linejoin="round"/>
<defs>
<linearGradient id="paint0_linear_2533_13179" x1="47.5" y1="0" x2="47.5" y2="94" gradientUnits="userSpaceOnUse">
<stop stop-color="#195EF7"/>
<stop offset="1" stop-color="#00BE7E"/>
</linearGradient>
</defs>
</svg>
