<svg width="24" height="24" viewBox="0 0 24 24" fill="none" xmlns="http://www.w3.org/2000/svg">
<g clip-path="url(#clip0_16246_43396)">
<path d="M21.4458 22.4553C21.4458 22.7191 21.341 22.972 21.1546 23.1585C20.9681 23.345 20.7152 23.4497 20.4514 23.4497H3.5471C3.28338 23.4497 3.03046 23.345 2.84398 23.1585C2.6575 22.972 2.55273 22.7191 2.55273 22.4553V11.5173H21.4458V22.4553Z" fill="#FFF9BF"/>
<path d="M21.4458 11.5173H2.55273V14.3383H21.4458V11.5173Z" fill="#FFEF5E"/>
<path d="M23.4349 10.5233C23.4349 10.7871 23.3302 11.04 23.1437 11.2265C22.9572 11.413 22.7043 11.5177 22.4406 11.5177H1.55882C1.2951 11.5177 1.04218 11.413 0.855697 11.2265C0.669217 11.04 0.564453 10.7871 0.564453 10.5233V8.53465C0.564453 8.27093 0.669217 8.018 0.855697 7.83152C1.04218 7.64504 1.2951 7.54028 1.55882 7.54028H22.4406C22.7043 7.54028 22.9572 7.64504 23.1437 7.83152C23.3302 8.018 23.4349 8.27093 23.4349 8.53465V10.5233Z" fill="#FFEF5E"/>
<path d="M23.4349 9.30131V8.53465C23.4349 8.27093 23.3302 8.018 23.1437 7.83152C22.9572 7.64504 22.7043 7.54028 22.4406 7.54028H1.55882C1.2951 7.54028 1.04218 7.64504 0.855697 7.83152C0.669217 8.018 0.564453 8.27093 0.564453 8.53465V9.30131H23.4349Z" fill="#FFF9BF"/>
<path d="M15.4801 7.54028H8.51953V11.5177H15.4801V7.54028Z" fill="#FF808C"/>
<path d="M15.4801 7.54028H8.51953V9.30131H15.4801V7.54028Z" fill="#FFBFC5"/>
<path d="M15.4801 11.5173H8.51953V23.4497H15.4801V11.5173Z" fill="#FFBFC5"/>
<path d="M15.4801 11.5173H8.51953V14.3383H15.4801V11.5173Z" fill="#FF808C"/>
<path d="M23.4349 10.5233C23.4349 10.7871 23.3302 11.04 23.1437 11.2265C22.9572 11.413 22.7043 11.5177 22.4406 11.5177H1.55882C1.2951 11.5177 1.04218 11.413 0.855697 11.2265C0.669217 11.04 0.564453 10.7871 0.564453 10.5233V8.53465C0.564453 8.27093 0.669217 8.018 0.855697 7.83152C1.04218 7.64504 1.2951 7.54028 1.55882 7.54028H22.4406C22.7043 7.54028 22.9572 7.64504 23.1437 7.83152C23.3302 8.018 23.4349 8.27093 23.4349 8.53465V10.5233Z" stroke="#191919" stroke-linecap="round" stroke-linejoin="round"/>
<path d="M21.4458 22.4553C21.4458 22.7191 21.341 22.972 21.1546 23.1585C20.9681 23.345 20.7152 23.4497 20.4514 23.4497H3.5471C3.28338 23.4497 3.03046 23.345 2.84398 23.1585C2.6575 22.972 2.55273 22.7191 2.55273 22.4553V11.5173H21.4458V22.4553Z" stroke="#191919" stroke-linecap="round" stroke-linejoin="round"/>
<path d="M8.51953 7.54028V23.4502" stroke="#191919" stroke-linecap="round" stroke-linejoin="round"/>
<path d="M15.4805 23.4502V7.54028" stroke="#191919" stroke-linecap="round" stroke-linejoin="round"/>
<path d="M17.3961 3.90077C16.6364 4.66146 12.9941 5.55142 12.9941 5.55142C12.9941 5.55142 13.889 1.90905 14.6447 1.14935C14.824 0.962382 15.0387 0.813077 15.2764 0.710186C15.5141 0.607295 15.7699 0.552889 16.0289 0.550157C16.2879 0.547425 16.5449 0.596422 16.7847 0.694275C17.0245 0.792128 17.2423 0.93687 17.4255 1.12001C17.6086 1.30316 17.7534 1.52102 17.8512 1.76083C17.9491 2.00064 17.9981 2.25757 17.9953 2.51656C17.9926 2.77555 17.9382 3.03139 17.8353 3.26908C17.7324 3.50677 17.5831 3.72153 17.3961 3.90077Z" stroke="#191919" stroke-linecap="round" stroke-linejoin="round"/>
<path d="M6.60374 3.90058C7.36344 4.66127 11.0058 5.55123 11.0058 5.55123C11.0058 5.55123 10.1109 1.90885 9.35516 1.14915C8.98774 0.79691 8.49692 0.602649 7.98796 0.608019C7.47899 0.613388 6.99238 0.81796 6.63247 1.17788C6.27255 1.53779 6.06798 2.0244 6.06261 2.53337C6.05724 3.04233 6.2515 3.53315 6.60374 3.90058Z" stroke="#191919" stroke-linecap="round" stroke-linejoin="round"/>
</g>
<defs>
<clipPath id="clip0_16246_43396">
<rect width="24" height="24" fill="white"/>
</clipPath>
</defs>
</svg>
