<svg width="16" height="16" viewBox="0 0 16 16" fill="none" xmlns="http://www.w3.org/2000/svg">
<g clip-path="url(#clip0_44_112)">
<path d="M14.6804 8.00984C14.6804 8.50025 14.4143 8.9318 14.0278 9.15412L10.7332 11.0438L7.9454 8.00984L10.7332 4.97589L14.0278 6.86557C14.4143 7.08789 14.6804 7.51944 14.6804 8.00984Z" fill="#FFCE00"/>
<path d="M7.9454 8.00984L1.10265 15.4574C0.874562 15.222 0.741508 14.9016 0.741508 14.5485V1.47115C0.741508 1.11806 0.874562 0.797664 1.10265 0.562271L7.9454 8.00984Z" fill="#00D4FF"/>
<path d="M7.9454 8.00984L10.7332 11.0438L2.62326 15.6928C2.43952 15.7974 2.23044 15.8563 2.00868 15.8563C1.65387 15.8563 1.33075 15.7059 1.10265 15.4574L7.9454 8.00984Z" fill="#FF3A44"/>
<path d="M10.7332 4.97588L7.9454 8.00984L1.10265 0.562267C1.33075 0.313796 1.65387 0.163406 2.00868 0.163406C2.23044 0.163406 2.43952 0.222255 2.62326 0.326874L10.7332 4.97588Z" fill="#00F076"/>
</g>
<defs>
<clipPath id="clip0_44_112">
<rect width="15.2061" height="15.6929" fill="white" transform="translate(0.107918 0.163406)"/>
</clipPath>
</defs>
</svg>
