<svg width="49" height="49" viewBox="0 0 49 49" fill="none" xmlns="http://www.w3.org/2000/svg">
<g id="google-play" clip-path="url(#clip0_18_6)">
<path id="Vector" d="M46.3285 24.5C46.3285 26.0313 45.4976 27.3788 44.2908 28.0729L34.0035 33.9733L25.2988 24.5L34.0035 15.0267L44.2908 20.9271C45.4976 21.6213 46.3285 22.9688 46.3285 24.5Z" fill="#FFCE00"/>
<path id="Vector_2" d="M25.2988 24.5L3.93271 47.7546C3.22051 47.0196 2.80505 46.0192 2.80505 44.9167V4.08334C2.80505 2.98084 3.22051 1.98042 3.93271 1.24542L25.2988 24.5Z" fill="#00D4FF"/>
<path id="Vector_3" d="M25.2988 24.5L34.0035 33.9733L8.68072 48.4896C8.107 48.8163 7.45415 49 6.76173 49C5.65386 49 4.64491 48.5304 3.93271 47.7546L25.2988 24.5Z" fill="#FF3A44"/>
<path id="Vector_4" d="M34.0035 15.0267L25.2988 24.5L3.93271 1.24542C4.64491 0.469583 5.65386 0 6.76173 0C7.45415 0 8.107 0.18375 8.68072 0.510417L34.0035 15.0267Z" fill="#00F076"/>
</g>
<defs>
<clipPath id="clip0_18_6">
<rect width="47.4801" height="49" fill="white" transform="translate(0.826721)"/>
</clipPath>
</defs>
</svg>
