<svg width="27" height="28" viewBox="0 0 27 28" fill="none" xmlns="http://www.w3.org/2000/svg">
<g clip-path="url(#clip0_37_137)">
<path d="M25.3536 14.1576C25.3536 14.9807 24.907 15.705 24.2583 16.0781L18.7285 19.2498L14.0494 14.1576L18.7285 9.06531L24.2583 12.237C24.907 12.6101 25.3536 13.3345 25.3536 14.1576Z" fill="#FFCE00"/>
<path d="M14.0494 14.1576L2.56439 26.6577C2.18156 26.2626 1.95824 25.7249 1.95824 25.1322V3.18289C1.95824 2.59026 2.18156 2.0525 2.56439 1.65741L14.0494 14.1576Z" fill="#00D4FF"/>
<path d="M14.0494 14.1576L18.7285 19.2498L5.11662 27.0528C4.80822 27.2284 4.45729 27.3272 4.08509 27.3272C3.48957 27.3272 2.94723 27.0748 2.56439 26.6577L14.0494 14.1576Z" fill="#FF3A44"/>
<path d="M18.7285 9.06532L14.0494 14.1576L2.56439 1.65742C2.94723 1.24038 3.48957 0.987961 4.08509 0.987961C4.45729 0.987961 4.80822 1.08673 5.11662 1.26233L18.7285 9.06532Z" fill="#00F076"/>
</g>
<defs>
<clipPath id="clip0_37_137">
<rect width="25.5222" height="26.3392" fill="white" transform="translate(0.894814 0.987961)"/>
</clipPath>
</defs>
</svg>
