<svg width="36" height="37" viewBox="0 0 36 37" fill="none" xmlns="http://www.w3.org/2000/svg">
<g clip-path="url(#clip0_36_112)">
<path d="M33.7635 18.4931C33.7635 19.6157 33.1543 20.6037 32.2696 21.1126L24.7274 25.4385L18.3456 18.4931L24.7274 11.5477L32.2696 15.8736C33.1543 16.3825 33.7635 17.3705 33.7635 18.4931Z" fill="#FFCE00"/>
<path d="M18.3456 18.4931L2.68105 35.5422C2.1589 35.0033 1.85432 34.2699 1.85432 33.4616V3.52464C1.85432 2.71634 2.1589 1.98289 2.68105 1.44402L18.3456 18.4931Z" fill="#00D4FF"/>
<path d="M18.3456 18.4931L24.7274 25.4385L6.16206 36.081C5.74144 36.3205 5.2628 36.4553 4.75515 36.4553C3.94292 36.4553 3.2032 36.111 2.68105 35.5422L18.3456 18.4931Z" fill="#FF3A44"/>
<path d="M24.7274 11.5477L18.3456 18.4931L2.68105 1.44402C3.2032 0.87522 3.94292 0.530945 4.75515 0.530945C5.2628 0.530945 5.74144 0.665661 6.16206 0.905156L24.7274 11.5477Z" fill="#00F076"/>
</g>
<defs>
<clipPath id="clip0_36_112">
<rect width="34.81" height="35.9243" fill="white" transform="translate(0.4039 0.530945)"/>
</clipPath>
</defs>
</svg>
