<svg width="24" height="66" viewBox="0 0 24 66" fill="none" xmlns="http://www.w3.org/2000/svg">
<path d="M12.6093 61.0005C11.6127 61.1058 10.5796 61.1934 9.54756 61.3536C8.96829 61.4528 8.35301 61.5706 7.83056 61.8323C7.10985 62.1876 6.72075 62.8828 7.00374 63.6228C7.19231 64.11 7.70746 64.5924 8.18235 64.8033C8.71194 65.0315 9.36535 65.0401 9.96329 64.977C13.5696 64.6341 17.1764 64.3275 20.7808 63.8576C22.7915 63.6105 23.8035 62.0714 23.1231 60.2122C22.4998 58.5336 21.6235 56.9312 20.6936 55.3841C19.3359 53.1174 17.834 50.9253 16.3682 48.7146C16.2567 48.5347 15.9654 48.4664 15.7274 48.3247C14.0861 49.0201 13.8525 50.4208 14.201 51.9219C14.4519 52.9526 14.9926 53.9428 15.4965 54.8973C16.0001 55.8336 16.6299 56.7137 17.1685 57.5587C16.6532 58.3103 16.2114 57.8812 15.8454 57.6687C11.5439 55.1364 8.63886 51.2952 6.1821 47.0846C5.69848 46.275 5.46621 45.2803 5.30732 44.339C3.59264 33.766 4.91476 23.6207 9.72883 14.0052C11.81 9.87363 15.1976 6.97518 19.0648 4.61416C19.7482 4.18682 20.6548 4.13734 21.4494 3.8717C22.2261 3.62447 22.5984 3.02019 22.6233 2.2395C22.6645 1.33155 22.1799 0.449402 21.3784 0.24332C20.6863 0.071926 19.9224 -0.0439731 19.2533 0.110948C18.3306 0.305859 17.3738 0.646448 16.5644 1.14821C11.8153 4.01205 7.85829 7.68097 5.50137 12.8146C2.28239 19.8119 0.338452 27.1353 0.506011 34.8998C0.577019 38.5282 0.611467 42.139 1.42582 45.7203C1.92926 47.8906 2.8287 49.8374 4.16065 51.5782C6.43641 54.5756 8.81918 57.4444 11.9003 59.6679C12.1756 59.8817 12.4157 60.1686 12.6374 60.4375C12.6929 60.5093 12.6408 60.6734 12.6093 61.0005Z" fill="#41CF9F"/>
</svg>
