<svg width="64" height="32" viewBox="0 0 64 32" fill="none" xmlns="http://www.w3.org/2000/svg">
<path d="M5.61985 21.2768C6.46302 21.1352 7.30245 20.9149 8.14816 20.8728C9.99345 20.7725 11.8462 20.8297 13.6436 21.2723C16.4265 21.9743 19.1389 21.4611 21.8463 20.8897C22.8506 20.6789 23.6484 20.1048 24.206 19.2523C24.6814 18.5357 25.1289 17.8009 25.5606 17.0528C26.0479 16.2004 26.4916 15.3166 26.9789 14.4642C28.1748 12.3629 29.9664 10.8996 32.0529 9.77149C33.2735 9.10607 34.6244 8.97727 35.9948 9.01082C37.4683 9.05031 38.9442 9.11889 40.4152 9.1293C42.2049 9.13329 43.9628 8.89981 45.6706 8.31622C46.6953 7.96607 47.5235 7.43924 48.1391 6.51159C49.5737 4.35797 51.6173 2.89674 53.8114 1.62193C54.9533 0.960234 56.2107 0.660671 57.4973 0.499237C58.8384 0.324414 60.1881 0.21624 61.5318 0.140771C62.0044 0.118415 62.494 0.22934 62.9582 0.351182C63.3 0.445298 63.4267 0.973447 63.2392 1.28507C62.9091 1.84889 62.4018 2.18751 61.7633 2.29124C60.8572 2.44981 59.9486 2.6496 59.0326 2.69186C55.319 2.86216 52.5488 4.73619 50.2571 7.48938C49.9062 7.91146 49.6062 8.38196 49.2347 8.80284C48.5268 9.60944 47.6368 10.1327 46.6145 10.4417C44.6026 11.0656 42.559 11.452 40.453 11.4133C39.2267 11.388 37.9884 11.4283 36.7729 11.2879C33.5046 10.9051 31.2333 12.5145 29.3713 14.9121C28.7772 15.6798 28.3724 16.6072 27.8729 17.4548C27.2816 18.4624 26.7145 19.4797 26.071 20.4594C25.159 21.8661 23.8478 22.7412 22.2075 23.0848C19.1827 23.7123 16.1637 24.1666 13.0874 23.3195C11.4802 22.8755 9.80567 22.8823 8.14808 22.8817C6.54016 22.88 5.31717 23.5866 4.37348 24.8261C3.23744 26.319 2.48812 27.9871 2.2031 29.8474C2.5782 30.4394 2.10599 30.7429 1.76468 31.0705C1.37978 31.4369 0.875547 31.292 0.779266 30.8111C0.721974 30.5143 0.669513 30.2054 0.687331 29.8964C0.861245 27.3104 1.67036 24.9637 3.40443 22.9927C4.03977 22.2977 4.74309 21.714 5.61985 21.2768Z" fill="#00BE7E"/>
</svg>
