<svg width="88" height="88" viewBox="0 0 88 88" fill="none" xmlns="http://www.w3.org/2000/svg">
<path d="M87.999 44C87.999 49.7782 86.8609 55.4997 84.6497 60.8381C82.4385 66.1764 79.1975 71.0269 75.1117 75.1127C71.0259 79.1985 66.1754 82.4395 60.8371 84.6507C55.4988 86.8619 49.7772 88 43.999 88C38.2209 88 32.4993 86.8619 27.1609 84.6507C21.8226 82.4395 16.9721 79.1985 12.8863 75.1127C8.80055 71.0269 5.55953 66.1764 3.34832 60.8381C1.13712 55.4997 -0.000974941 49.7782 -0.000974115 44L43.999 44L87.999 44Z" fill="white"/>
<path d="M43.999 -1.9233e-06C49.7772 -1.67073e-06 55.4988 1.13809 60.8371 3.3493C66.1754 5.56051 71.0259 8.80152 75.1117 12.8873C79.1975 16.9731 82.4385 21.8236 84.6497 27.1619C86.8609 32.5003 87.999 38.2218 87.999 44C87.999 49.7782 86.8609 55.4997 84.6497 60.8381C82.4385 66.1764 79.1975 71.0269 75.1117 75.1127C71.0259 79.1985 66.1754 82.4395 60.8371 84.6507C55.4988 86.8619 49.7772 88 43.999 88L43.999 44L43.999 -1.9233e-06Z" fill="#EC5A5A"/>
</svg>
