<svg width="95" height="94" viewBox="0 0 95 94" fill="none" xmlns="http://www.w3.org/2000/svg">
<rect x="0.5" width="94" height="94" rx="47" fill="url(#paint0_linear_2533_11304)" fill-opacity="0.3"/>
<path fill-rule="evenodd" clip-rule="evenodd" d="M58.2881 41.5222H36.707V70.7396L47.4976 64.1657L58.2881 70.7397H36.707V70.7397H58.2881V41.5222Z" fill="#195EF7"/>
<ellipse cx="47.4993" cy="40.8856" rx="17.2649" ry="17.6246" fill="#000059"/>
<ellipse cx="47.5001" cy="40.8854" rx="13.668" ry="14.0277" fill="#195EF7"/>
<ellipse cx="47.4976" cy="40.8861" rx="10.7906" ry="11.1502" fill="#00BE7E"/>
<path d="M47.1694 33.7702C47.3282 33.5384 47.6703 33.5384 47.8292 33.7702L50.2634 37.322C50.3154 37.3979 50.392 37.4535 50.4802 37.4796L54.6104 38.6971C54.88 38.7765 54.9857 39.1019 54.8143 39.3246L52.1886 42.7372C52.1325 42.8102 52.1032 42.9002 52.1057 42.9921L52.2241 47.2964C52.2319 47.5773 51.9551 47.7784 51.6903 47.6842L47.6333 46.2416C47.5466 46.2107 47.452 46.2107 47.3653 46.2416L43.3083 47.6842C43.0435 47.7784 42.7667 47.5773 42.7744 47.2964L42.8928 42.9921C42.8953 42.9002 42.8661 42.8102 42.81 42.7372L40.1842 39.3246C40.0129 39.1019 40.1186 38.7765 40.3882 38.6971L44.5183 37.4796C44.6066 37.4535 44.6831 37.3979 44.7352 37.322L47.1694 33.7702Z" fill="white"/>
<defs>
<linearGradient id="paint0_linear_2533_11304" x1="47.5" y1="0" x2="47.5" y2="94" gradientUnits="userSpaceOnUse">
<stop stop-color="#195EF7"/>
<stop offset="1" stop-color="#00BE7E"/>
</linearGradient>
</defs>
</svg>
