<svg width="52" height="53" viewBox="0 0 52 53" fill="none" xmlns="http://www.w3.org/2000/svg">
<path d="M13.0013 9.31508H23.8346V26.6484L18.418 23.3984L13.0013 26.6484M39.0013 4.98175H13.0013C11.852 4.98175 10.7498 5.4383 9.93717 6.25095C9.12451 7.06361 8.66797 8.16581 8.66797 9.31508V43.9817C8.66797 45.131 9.12451 46.2332 9.93717 47.0459C10.7498 47.8585 11.852 48.3151 13.0013 48.3151H39.0013C40.1506 48.3151 41.2528 47.8585 42.0654 47.0459C42.8781 46.2332 43.3346 45.131 43.3346 43.9817V9.31508C43.3346 8.16581 42.8781 7.06361 42.0654 6.25095C41.2528 5.4383 40.1506 4.98175 39.0013 4.98175Z" fill="#00BE7E"/>
</svg>
