<svg
          width="168"
          height="186"
          viewBox="0 0 168 186"
          fill="none"
          xmlns="http://www.w3.org/2000/svg"
        >
          <g clip-path="url(#clip0_14600_22043)">
            <g clip-path="url(#clip1_14600_22043)">
              <circle opacity="0.2" cx="3" cy="3" r="3" fill="#5186ED" />
              <circle opacity="0.2" cx="21" cy="3" r="3" fill="#5186ED" />
              <circle opacity="0.2" cx="39" cy="3" r="3" fill="#5186ED" />
              <circle opacity="0.2" cx="57" cy="3" r="3" fill="#5186ED" />
              <circle opacity="0.2" cx="75" cy="3" r="3" fill="#5186ED" />
              <circle opacity="0.2" cx="93" cy="3" r="3" fill="#5186ED" />
              <circle opacity="0.2" cx="111" cy="3" r="3" fill="#5186ED" />
              <circle opacity="0.2" cx="129" cy="3" r="3" fill="#5186ED" />
              <circle opacity="0.2" cx="147" cy="3" r="3" fill="#5186ED" />
              <circle opacity="0.2" cx="165" cy="3" r="3" fill="#5186ED" />
            </g>
            <g clip-path="url(#clip2_14600_22043)">
              <circle opacity="0.2" cx="3" cy="21" r="3" fill="#5186ED" />
              <circle opacity="0.2" cx="21" cy="21" r="3" fill="#5186ED" />
              <circle opacity="0.2" cx="39" cy="21" r="3" fill="#5186ED" />
              <circle opacity="0.2" cx="57" cy="21" r="3" fill="#5186ED" />
              <circle opacity="0.2" cx="75" cy="21" r="3" fill="#5186ED" />
              <circle opacity="0.2" cx="93" cy="21" r="3" fill="#5186ED" />
              <circle opacity="0.2" cx="111" cy="21" r="3" fill="#5186ED" />
              <circle opacity="0.2" cx="129" cy="21" r="3" fill="#5186ED" />
              <circle opacity="0.2" cx="147" cy="21" r="3" fill="#5186ED" />
              <circle opacity="0.2" cx="165" cy="21" r="3" fill="#5186ED" />
            </g>
            <g clip-path="url(#clip3_14600_22043)">
              <circle opacity="0.2" cx="3" cy="39" r="3" fill="#5186ED" />
              <circle opacity="0.2" cx="21" cy="39" r="3" fill="#5186ED" />
              <circle opacity="0.2" cx="39" cy="39" r="3" fill="#5186ED" />
              <circle opacity="0.2" cx="57" cy="39" r="3" fill="#5186ED" />
              <circle opacity="0.2" cx="75" cy="39" r="3" fill="#5186ED" />
              <circle opacity="0.2" cx="93" cy="39" r="3" fill="#5186ED" />
              <circle opacity="0.2" cx="111" cy="39" r="3" fill="#5186ED" />
              <circle opacity="0.2" cx="129" cy="39" r="3" fill="#5186ED" />
              <circle opacity="0.2" cx="147" cy="39" r="3" fill="#5186ED" />
              <circle opacity="0.2" cx="165" cy="39" r="3" fill="#5186ED" />
            </g>
            <g clip-path="url(#clip4_14600_22043)">
              <circle opacity="0.2" cx="3" cy="57" r="3" fill="#5186ED" />
              <circle opacity="0.2" cx="21" cy="57" r="3" fill="#5186ED" />
              <circle opacity="0.2" cx="39" cy="57" r="3" fill="#5186ED" />
              <circle opacity="0.2" cx="57" cy="57" r="3" fill="#5186ED" />
              <circle opacity="0.2" cx="75" cy="57" r="3" fill="#5186ED" />
              <circle opacity="0.2" cx="93" cy="57" r="3" fill="#5186ED" />
              <circle opacity="0.2" cx="111" cy="57" r="3" fill="#5186ED" />
              <circle opacity="0.2" cx="129" cy="57" r="3" fill="#5186ED" />
              <circle opacity="0.2" cx="147" cy="57" r="3" fill="#5186ED" />
              <circle opacity="0.2" cx="165" cy="57" r="3" fill="#5186ED" />
            </g>
            <g clip-path="url(#clip5_14600_22043)">
              <circle opacity="0.2" cx="3" cy="75" r="3" fill="#5186ED" />
              <circle opacity="0.2" cx="21" cy="75" r="3" fill="#5186ED" />
              <circle opacity="0.2" cx="39" cy="75" r="3" fill="#5186ED" />
              <circle opacity="0.2" cx="57" cy="75" r="3" fill="#5186ED" />
              <circle opacity="0.2" cx="75" cy="75" r="3" fill="#5186ED" />
              <circle opacity="0.2" cx="93" cy="75" r="3" fill="#5186ED" />
              <circle opacity="0.2" cx="111" cy="75" r="3" fill="#5186ED" />
              <circle opacity="0.2" cx="129" cy="75" r="3" fill="#5186ED" />
              <circle opacity="0.2" cx="147" cy="75" r="3" fill="#5186ED" />
              <circle opacity="0.2" cx="165" cy="75" r="3" fill="#5186ED" />
            </g>
            <g clip-path="url(#clip6_14600_22043)">
              <circle opacity="0.2" cx="3" cy="93" r="3" fill="#5186ED" />
              <circle opacity="0.2" cx="21" cy="93" r="3" fill="#5186ED" />
              <circle opacity="0.2" cx="39" cy="93" r="3" fill="#5186ED" />
              <circle opacity="0.2" cx="57" cy="93" r="3" fill="#5186ED" />
              <circle opacity="0.2" cx="75" cy="93" r="3" fill="#5186ED" />
              <circle opacity="0.2" cx="93" cy="93" r="3" fill="#5186ED" />
              <circle opacity="0.2" cx="111" cy="93" r="3" fill="#5186ED" />
              <circle opacity="0.2" cx="129" cy="93" r="3" fill="#5186ED" />
              <circle opacity="0.2" cx="147" cy="93" r="3" fill="#5186ED" />
              <circle opacity="0.2" cx="165" cy="93" r="3" fill="#5186ED" />
            </g>
            <g clip-path="url(#clip7_14600_22043)">
              <circle opacity="0.2" cx="3" cy="111" r="3" fill="#5186ED" />
              <circle opacity="0.2" cx="21" cy="111" r="3" fill="#5186ED" />
              <circle opacity="0.2" cx="39" cy="111" r="3" fill="#5186ED" />
              <circle opacity="0.2" cx="57" cy="111" r="3" fill="#5186ED" />
              <circle opacity="0.2" cx="75" cy="111" r="3" fill="#5186ED" />
              <circle opacity="0.2" cx="93" cy="111" r="3" fill="#5186ED" />
              <circle opacity="0.2" cx="111" cy="111" r="3" fill="#5186ED" />
              <circle opacity="0.2" cx="129" cy="111" r="3" fill="#5186ED" />
              <circle opacity="0.2" cx="147" cy="111" r="3" fill="#5186ED" />
              <circle opacity="0.2" cx="165" cy="111" r="3" fill="#5186ED" />
            </g>
            <g clip-path="url(#clip8_14600_22043)">
              <circle opacity="0.2" cx="3" cy="129" r="3" fill="#5186ED" />
              <circle opacity="0.2" cx="21" cy="129" r="3" fill="#5186ED" />
              <circle opacity="0.2" cx="39" cy="129" r="3" fill="#5186ED" />
              <circle opacity="0.2" cx="57" cy="129" r="3" fill="#5186ED" />
              <circle opacity="0.2" cx="75" cy="129" r="3" fill="#5186ED" />
              <circle opacity="0.2" cx="93" cy="129" r="3" fill="#5186ED" />
              <circle opacity="0.2" cx="111" cy="129" r="3" fill="#5186ED" />
              <circle opacity="0.2" cx="129" cy="129" r="3" fill="#5186ED" />
              <circle opacity="0.2" cx="147" cy="129" r="3" fill="#5186ED" />
              <circle opacity="0.2" cx="165" cy="129" r="3" fill="#5186ED" />
            </g>
            <g clip-path="url(#clip9_14600_22043)">
              <circle opacity="0.2" cx="3" cy="147" r="3" fill="#5186ED" />
              <circle opacity="0.2" cx="21" cy="147" r="3" fill="#5186ED" />
              <circle opacity="0.2" cx="39" cy="147" r="3" fill="#5186ED" />
              <circle opacity="0.2" cx="57" cy="147" r="3" fill="#5186ED" />
              <circle opacity="0.2" cx="75" cy="147" r="3" fill="#5186ED" />
              <circle opacity="0.2" cx="93" cy="147" r="3" fill="#5186ED" />
              <circle opacity="0.2" cx="111" cy="147" r="3" fill="#5186ED" />
              <circle opacity="0.2" cx="129" cy="147" r="3" fill="#5186ED" />
              <circle opacity="0.2" cx="147" cy="147" r="3" fill="#5186ED" />
              <circle opacity="0.2" cx="165" cy="147" r="3" fill="#5186ED" />
            </g>
            <g clip-path="url(#clip10_14600_22043)">
              <circle opacity="0.2" cx="3" cy="165" r="3" fill="#5186ED" />
              <circle opacity="0.2" cx="21" cy="165" r="3" fill="#5186ED" />
              <circle opacity="0.2" cx="39" cy="165" r="3" fill="#5186ED" />
              <circle opacity="0.2" cx="57" cy="165" r="3" fill="#5186ED" />
              <circle opacity="0.2" cx="75" cy="165" r="3" fill="#5186ED" />
              <circle opacity="0.2" cx="93" cy="165" r="3" fill="#5186ED" />
              <circle opacity="0.2" cx="111" cy="165" r="3" fill="#5186ED" />
              <circle opacity="0.2" cx="129" cy="165" r="3" fill="#5186ED" />
              <circle opacity="0.2" cx="147" cy="165" r="3" fill="#5186ED" />
              <circle opacity="0.2" cx="165" cy="165" r="3" fill="#5186ED" />
            </g>
            <g clip-path="url(#clip11_14600_22043)">
              <circle opacity="0.2" cx="3" cy="183" r="3" fill="#5186ED" />
              <circle opacity="0.2" cx="21" cy="183" r="3" fill="#5186ED" />
              <circle opacity="0.2" cx="39" cy="183" r="3" fill="#5186ED" />
              <circle opacity="0.2" cx="57" cy="183" r="3" fill="#5186ED" />
              <circle opacity="0.2" cx="75" cy="183" r="3" fill="#5186ED" />
              <circle opacity="0.2" cx="93" cy="183" r="3" fill="#5186ED" />
              <circle opacity="0.2" cx="111" cy="183" r="3" fill="#5186ED" />
              <circle opacity="0.2" cx="129" cy="183" r="3" fill="#5186ED" />
              <circle opacity="0.2" cx="147" cy="183" r="3" fill="#5186ED" />
              <circle opacity="0.2" cx="165" cy="183" r="3" fill="#5186ED" />
            </g>
          </g>
          <defs>
            <clipPath id="clip0_14600_22043">
              <rect width="168" height="186" fill="white" />
            </clipPath>
            <clipPath id="clip1_14600_22043">
              <rect width="168" height="6" fill="white" />
            </clipPath>
            <clipPath id="clip2_14600_22043">
              <rect
                width="168"
                height="6"
                fill="white"
                transform="translate(0 18)"
              />
            </clipPath>
            <clipPath id="clip3_14600_22043">
              <rect
                width="168"
                height="6"
                fill="white"
                transform="translate(0 36)"
              />
            </clipPath>
            <clipPath id="clip4_14600_22043">
              <rect
                width="168"
                height="6"
                fill="white"
                transform="translate(0 54)"
              />
            </clipPath>
            <clipPath id="clip5_14600_22043">
              <rect
                width="168"
                height="6"
                fill="white"
                transform="translate(0 72)"
              />
            </clipPath>
            <clipPath id="clip6_14600_22043">
              <rect
                width="168"
                height="6"
                fill="white"
                transform="translate(0 90)"
              />
            </clipPath>
            <clipPath id="clip7_14600_22043">
              <rect
                width="168"
                height="6"
                fill="white"
                transform="translate(0 108)"
              />
            </clipPath>
            <clipPath id="clip8_14600_22043">
              <rect
                width="168"
                height="6"
                fill="white"
                transform="translate(0 126)"
              />
            </clipPath>
            <clipPath id="clip9_14600_22043">
              <rect
                width="168"
                height="6"
                fill="white"
                transform="translate(0 144)"
              />
            </clipPath>
            <clipPath id="clip10_14600_22043">
              <rect
                width="168"
                height="6"
                fill="white"
                transform="translate(0 162)"
              />
            </clipPath>
            <clipPath id="clip11_14600_22043">
              <rect
                width="168"
                height="6"
                fill="white"
                transform="translate(0 180)"
              />
            </clipPath>
          </defs>
        </svg>