<svg width="603" height="540" viewBox="0 0 603 540" fill="none" xmlns="http://www.w3.org/2000/svg">
<mask id="mask0_31_39" style="mask-type:alpha" maskUnits="userSpaceOnUse" x="0" y="0" width="603" height="540">
<rect width="603" height="540" fill="#D9D9D9"/>
</mask>
<g mask="url(#mask0_31_39)">
<path d="M448.449 230.392C448.844 233.642 449.111 236.931 449.245 240.254L448.495 240.284C448.561 241.917 448.594 243.558 448.594 245.207C448.594 246.855 448.561 248.497 448.495 250.13L449.245 250.16C449.111 253.482 448.844 256.771 448.449 260.021L447.704 259.931C447.306 263.205 446.776 266.44 446.12 269.63L446.855 269.781C446.188 273.03 445.39 276.233 444.468 279.385L443.749 279.175C442.825 282.333 441.776 285.439 440.607 288.489L441.307 288.757C440.123 291.846 438.817 294.877 437.394 297.844L436.718 297.52C435.297 300.481 433.76 303.379 432.111 306.207L432.759 306.585C431.097 309.437 429.322 312.219 427.44 314.926L426.824 314.497C424.952 317.19 422.974 319.807 420.895 322.343L421.475 322.819C419.385 325.369 417.193 327.837 414.907 330.217L414.366 329.698C412.097 332.061 409.734 334.337 407.282 336.52L407.781 337.08C405.321 339.271 402.774 341.369 400.144 343.368L399.69 342.771C397.084 344.752 394.398 346.635 391.635 348.416L392.042 349.046C389.276 350.829 386.436 352.51 383.526 354.083L383.169 353.423C380.294 354.977 377.35 356.425 374.344 357.762L374.649 358.447C371.645 359.782 368.58 361.008 365.457 362.117L365.206 361.41C362.132 362.503 359.002 363.483 355.822 364.345L356.019 365.068C352.852 365.927 349.637 366.669 346.376 367.29L346.236 366.553C343.036 367.163 339.793 367.655 336.512 368.025L336.596 368.77C333.343 369.137 330.053 369.385 326.73 369.509L326.702 368.759C325.068 368.82 323.426 368.851 321.776 368.851C320.127 368.851 318.485 368.82 316.851 368.759L316.823 369.509C313.5 369.385 310.21 369.137 306.957 368.77L307.041 368.025C303.76 367.655 300.517 367.163 297.317 366.553L297.177 367.29C293.916 366.669 290.701 365.927 287.534 365.068L287.731 364.345C284.551 363.483 281.421 362.503 278.347 361.41L278.096 362.117C274.973 361.008 271.908 359.782 268.904 358.447L269.209 357.762C266.203 356.425 263.259 354.977 260.384 353.423L260.027 354.083C257.117 352.51 254.277 350.829 251.511 349.046L251.918 348.416C249.155 346.635 246.469 344.752 243.863 342.771L243.409 343.368C240.779 341.369 238.232 339.271 235.772 337.08L236.271 336.52C233.819 334.337 231.456 332.061 229.187 329.698L228.646 330.217C226.36 327.837 224.168 325.369 222.078 322.819L222.658 322.343C220.579 319.807 218.601 317.19 216.729 314.497L216.113 314.926C214.231 312.219 212.456 309.437 210.794 306.585L211.442 306.207C209.793 303.379 208.256 300.481 206.835 297.52L206.159 297.844C204.736 294.877 203.43 291.846 202.246 288.757L202.946 288.489C201.777 285.439 200.728 282.333 199.804 279.175L199.085 279.385C198.163 276.233 197.365 273.03 196.698 269.781L197.433 269.63C196.777 266.44 196.247 263.205 195.849 259.931L195.104 260.021C194.709 256.771 194.442 253.482 194.308 250.16L195.058 250.13C194.992 248.497 194.959 246.855 194.959 245.207C194.959 243.558 194.992 241.917 195.058 240.284L194.308 240.254C194.442 236.931 194.709 233.642 195.104 230.392L195.849 230.483C196.247 227.208 196.777 223.973 197.433 220.783L196.698 220.632C197.365 217.383 198.163 214.18 199.085 211.028L199.804 211.239C200.728 208.08 201.777 204.974 202.946 201.924L202.246 201.656C203.43 198.567 204.736 195.536 206.159 192.569L206.835 192.894C208.256 189.932 209.793 187.034 211.442 184.206L210.794 183.829C212.456 180.976 214.231 178.194 216.113 175.488L216.729 175.916C218.601 173.223 220.579 170.606 222.658 168.07L222.078 167.595C224.168 165.045 226.36 162.576 228.646 160.196L229.187 160.716C231.456 158.353 233.819 156.076 236.271 153.893L235.772 153.333C238.232 151.142 240.779 149.045 243.409 147.045L243.863 147.642C246.469 145.662 249.155 143.778 251.918 141.997L251.511 141.367C254.277 139.584 257.117 137.903 260.027 136.331L260.384 136.99C263.259 135.437 266.203 133.989 269.209 132.652L268.904 131.966C271.908 130.631 274.973 129.406 278.096 128.296L278.347 129.003C281.421 127.91 284.551 126.931 287.731 126.069L287.534 125.345C290.701 124.487 293.916 123.744 297.177 123.123L297.317 123.86C300.517 123.25 303.76 122.758 307.041 122.388L306.957 121.643C310.21 121.276 313.5 121.028 316.823 120.905L316.851 121.654C318.485 121.593 320.127 121.562 321.776 121.562C323.426 121.562 325.068 121.593 326.702 121.654L326.73 120.905C330.053 121.028 333.343 121.276 336.596 121.643L336.512 122.388C339.793 122.758 343.036 123.25 346.236 123.86L346.376 123.123C349.637 123.744 352.852 124.487 356.019 125.345L355.822 126.069C359.002 126.931 362.132 127.91 365.206 129.003L365.457 128.296C368.58 129.406 371.645 130.631 374.649 131.966L374.344 132.652C377.35 133.989 380.294 135.437 383.169 136.99L383.526 136.331C386.436 137.903 389.276 139.584 392.042 141.367L391.635 141.997C394.398 143.778 397.084 145.662 399.69 147.642L400.144 147.045C402.774 149.045 405.321 151.142 407.781 153.333L407.282 153.893C409.734 156.076 412.097 158.353 414.366 160.716L414.907 160.196C417.193 162.576 419.385 165.045 421.475 167.595L420.895 168.07C422.974 170.606 424.952 173.223 426.824 175.916L427.44 175.488C429.322 178.194 431.097 180.976 432.759 183.829L432.111 184.206C433.76 187.034 435.297 189.932 436.718 192.894L437.394 192.569C438.817 195.536 440.123 198.567 441.307 201.656L440.607 201.924C441.776 204.974 442.825 208.08 443.749 211.239L444.468 211.028C445.39 214.18 446.188 217.383 446.855 220.632L446.12 220.783C446.776 223.973 447.306 227.208 447.704 230.483L448.449 230.392Z" stroke="white" stroke-opacity="0.2" stroke-width="1.5" stroke-dasharray="10 10"/>
<path d="M527.27 230.221C527.52 233.524 527.688 236.85 527.771 240.196L527.022 240.215C527.063 241.874 527.084 243.537 527.084 245.206C527.084 246.874 527.063 248.538 527.022 250.196L527.771 250.215C527.688 253.561 527.52 256.887 527.27 260.19L526.522 260.134C526.271 263.457 525.936 266.757 525.521 270.033L526.265 270.128C525.844 273.445 525.34 276.737 524.756 280.001L524.017 279.869C523.431 283.146 522.762 286.396 522.014 289.616L522.745 289.785C521.989 293.039 521.152 296.262 520.237 299.454L519.516 299.247C518.599 302.444 517.602 305.608 516.529 308.738L517.238 308.982C516.156 312.138 514.995 315.26 513.758 318.345L513.062 318.065C511.825 321.15 510.512 324.197 509.125 327.205L509.806 327.519C508.41 330.547 506.939 333.535 505.396 336.481L504.732 336.133C503.191 339.075 501.577 341.974 499.894 344.829L500.54 345.21C498.848 348.081 497.085 350.907 495.253 353.686L494.627 353.273C492.801 356.044 490.906 358.769 488.946 361.444L489.551 361.887C487.583 364.574 485.548 367.211 483.45 369.797L482.867 369.324C480.777 371.9 478.623 374.424 476.408 376.895L476.966 377.396C474.744 379.874 472.46 382.299 470.118 384.668L469.584 384.141C467.253 386.498 464.862 388.8 462.415 391.044L462.922 391.597C460.47 393.846 457.961 396.037 455.399 398.168L454.919 397.592C452.37 399.711 449.768 401.77 447.114 403.767L447.565 404.367C444.907 406.367 442.198 408.305 439.44 410.179L439.019 409.558C436.278 411.42 433.489 413.219 430.654 414.952L431.045 415.592C428.208 417.325 425.325 418.993 422.398 420.593L422.038 419.935C419.132 421.524 416.183 423.045 413.192 424.498L413.52 425.173C410.531 426.624 407.501 428.007 404.432 429.319L404.137 428.629C401.094 429.93 398.012 431.161 394.894 432.32L395.155 433.023C392.042 434.18 388.894 435.266 385.711 436.278L385.484 435.563C382.332 436.565 379.146 437.495 375.929 438.351L376.122 439.075C372.915 439.928 369.677 440.707 366.41 441.411L366.252 440.678C363.021 441.373 359.761 441.995 356.475 442.54L356.598 443.28C353.327 443.823 350.03 444.291 346.709 444.681L346.621 443.936C343.341 444.322 340.037 444.633 336.712 444.866L336.764 445.614C333.459 445.845 330.133 446.001 326.787 446.079L326.769 445.329C325.11 445.368 323.446 445.387 321.777 445.387C320.108 445.387 318.444 445.368 316.785 445.329L316.767 446.079C313.421 446.001 310.095 445.845 306.79 445.614L306.842 444.866C303.517 444.633 300.213 444.322 296.933 443.936L296.845 444.681C293.524 444.291 290.227 443.823 286.956 443.28L287.079 442.54C283.792 441.995 280.533 441.373 277.302 440.678L277.144 441.411C273.877 440.707 270.639 439.928 267.432 439.075L267.625 438.351C264.408 437.495 261.222 436.565 258.07 435.563L257.843 436.278C254.66 435.266 251.512 434.18 248.399 433.023L248.66 432.32C245.542 431.161 242.46 429.93 239.417 428.629L239.122 429.319C236.053 428.007 233.023 426.624 230.034 425.173L230.362 424.498C227.371 423.045 224.422 421.524 221.516 419.935L221.156 420.593C218.229 418.993 215.346 417.325 212.509 415.592L212.9 414.952C210.065 413.219 207.275 411.42 204.535 409.558L204.113 410.179C201.355 408.305 198.646 406.367 195.989 404.367L196.44 403.767C193.786 401.77 191.183 399.711 188.635 397.592L188.155 398.168C185.592 396.037 183.084 393.846 180.631 391.597L181.138 391.044C178.691 388.8 176.301 386.498 173.969 384.141L173.436 384.668C171.093 382.299 168.81 379.874 166.588 377.396L167.146 376.895C164.931 374.424 162.777 371.9 160.687 369.324L160.104 369.797C158.006 367.211 155.971 364.574 154.003 361.887L154.608 361.444C152.647 358.769 150.753 356.044 148.927 353.273L148.301 353.686C146.469 350.907 144.706 348.081 143.014 345.21L143.66 344.829C141.976 341.974 140.363 339.075 138.822 336.133L138.158 336.481C136.615 333.535 135.144 330.547 133.747 327.519L134.428 327.205C133.042 324.197 131.729 321.15 130.492 318.066L129.796 318.345C128.559 315.26 127.398 312.138 126.316 308.982L127.025 308.738C125.951 305.608 124.955 302.444 124.038 299.247L123.317 299.454C122.401 296.262 121.565 293.039 120.809 289.785L121.539 289.616C120.791 286.396 120.123 283.146 119.536 279.869L118.798 280.001C118.214 276.737 117.71 273.445 117.289 270.128L118.033 270.033C117.617 266.757 117.283 263.457 117.032 260.134L116.284 260.19C116.034 256.887 115.866 253.561 115.782 250.215L116.532 250.196C116.491 248.538 116.47 246.874 116.47 245.206C116.47 243.537 116.491 241.874 116.532 240.215L115.782 240.196C115.866 236.85 116.034 233.525 116.284 230.221L117.032 230.277C117.283 226.954 117.617 223.654 118.033 220.378L117.289 220.284C117.71 216.967 118.214 213.675 118.798 210.41L119.536 210.542C120.123 207.265 120.791 204.016 121.539 200.796L120.809 200.626C121.565 197.373 122.401 194.149 123.317 190.958L124.038 191.164C124.955 187.968 125.951 184.803 127.025 181.673L126.316 181.43C127.398 178.273 128.559 175.151 129.796 172.067L130.492 172.346C131.729 169.262 133.042 166.214 134.428 163.207L133.747 162.893C135.144 159.865 136.615 156.876 138.158 153.93L138.822 154.278C140.363 151.337 141.976 148.437 143.66 145.582L143.014 145.201C144.706 142.331 146.469 139.505 148.301 136.726L148.927 137.138C150.753 134.367 152.647 131.643 154.608 128.967L154.003 128.524C155.971 125.838 158.006 123.2 160.104 120.615L160.687 121.087C162.777 118.512 164.931 115.987 167.146 113.516L166.588 113.016C168.81 110.537 171.093 108.112 173.436 105.743L173.969 106.271C176.301 103.913 178.691 101.611 181.138 99.3669L180.631 98.8142C183.084 96.5651 185.592 94.374 188.155 92.2431L188.635 92.8198C191.183 90.7007 193.786 88.6414 196.44 86.6439L195.989 86.0447C198.646 84.0447 201.355 82.1066 204.113 80.2326L204.535 80.8529C207.275 78.9909 210.065 77.1924 212.9 75.4596L212.509 74.8196C215.346 73.0862 218.229 71.4183 221.156 69.818L221.516 70.4761C224.422 68.8876 227.371 67.366 230.362 65.9134L230.034 65.2388C233.023 63.7872 236.053 62.4044 239.122 61.0924L239.417 61.782C242.46 60.4811 245.542 59.25 248.66 58.0909L248.399 57.3879C251.512 56.231 254.66 55.1455 257.843 54.1335L258.07 54.8482C261.222 53.846 264.408 52.9162 267.625 52.0607L267.432 51.3359C270.639 50.4831 273.877 49.704 277.144 49.0005L277.302 49.7337C280.533 49.0379 283.792 48.4164 287.079 47.871L286.956 47.1311C290.227 46.5883 293.524 46.1206 296.845 45.73L296.933 46.4749C300.213 46.0891 303.516 45.7788 306.842 45.5457L306.79 44.7975C310.095 44.5659 313.421 44.4103 316.767 44.3324L316.784 45.0822C318.444 45.0436 320.108 45.0242 321.777 45.0242C323.446 45.0242 325.11 45.0436 326.769 45.0822L326.787 44.3324C330.133 44.4102 333.459 44.5659 336.764 44.7975L336.712 45.5457C340.037 45.7788 343.341 46.0891 346.621 46.4748L346.709 45.73C350.03 46.1206 353.327 46.5883 356.598 47.1311L356.475 47.871C359.761 48.4164 363.021 49.0379 366.252 49.7337L366.41 49.0005C369.677 49.704 372.915 50.4831 376.122 51.3359L375.929 52.0607C379.146 52.9162 382.332 53.846 385.484 54.8482L385.711 54.1335C388.894 55.1455 392.042 56.2309 395.155 57.3879L394.893 58.0909C398.012 59.25 401.094 60.481 404.137 61.782L404.432 61.0924C407.501 62.4044 410.531 63.7872 413.52 65.2388L413.192 65.9134C416.183 67.366 419.132 68.8876 422.038 70.476L422.398 69.818C425.325 71.4182 428.208 73.0862 431.045 74.8196L430.654 75.4596C433.489 77.1924 436.278 78.9909 439.019 80.8529L439.44 80.2326C442.198 82.1066 444.907 84.0447 447.565 86.0447L447.114 86.6439C449.768 88.6414 452.37 90.7007 454.919 92.8198L455.399 92.2431C457.961 94.374 460.47 96.5651 462.922 98.8142L462.415 99.3669C464.862 101.611 467.253 103.913 469.584 106.271L470.118 105.743C472.46 108.112 474.744 110.537 476.966 113.016L476.408 113.516C478.623 115.987 480.777 118.512 482.867 121.087L483.45 120.615C485.548 123.2 487.583 125.838 489.551 128.524L488.946 128.967C490.906 131.643 492.801 134.367 494.627 137.138L495.253 136.726C497.085 139.505 498.848 142.33 500.54 145.201L499.894 145.582C501.577 148.437 503.191 151.337 504.732 154.278L505.396 153.93C506.939 156.876 508.41 159.865 509.806 162.893L509.125 163.207C510.512 166.214 511.825 169.262 513.062 172.346L513.758 172.067C514.995 175.151 516.156 178.273 517.238 181.43L516.529 181.673C517.602 184.803 518.599 187.967 519.516 191.164L520.237 190.957C521.152 194.149 521.989 197.372 522.745 200.626L522.014 200.796C522.762 204.016 523.431 207.265 524.017 210.542L524.756 210.41C525.34 213.675 525.844 216.967 526.265 220.284L525.521 220.378C525.936 223.654 526.271 226.954 526.522 230.277L527.27 230.221Z" stroke="white" stroke-opacity="0.1" stroke-width="1.5" stroke-dasharray="10 10"/>
<path d="M590.393 228.863C590.583 232.17 590.711 235.494 590.775 238.834L590.025 238.848C590.057 240.51 590.073 242.176 590.073 243.846C590.073 245.516 590.057 247.182 590.025 248.844L590.775 248.859C590.711 252.198 590.583 255.522 590.393 258.83L589.645 258.787C589.454 262.115 589.199 265.426 588.882 268.72L589.628 268.792C589.308 272.12 588.925 275.43 588.479 278.721L587.736 278.62C587.288 281.92 586.779 285.2 586.207 288.46L586.946 288.59C586.37 291.877 585.731 295.143 585.032 298.387L584.299 298.229C583.597 301.483 582.833 304.715 582.009 307.923L582.736 308.11C581.906 311.343 581.014 314.553 580.062 317.739L579.344 317.524C578.391 320.711 577.379 323.873 576.308 327.009L577.017 327.252C575.939 330.407 574.802 333.536 573.606 336.637L572.906 336.367C571.711 339.469 570.456 342.543 569.145 345.588L569.834 345.884C568.514 348.947 567.138 351.981 565.705 354.983L565.028 354.66C563.596 357.66 562.108 360.629 560.565 363.566L561.229 363.914C559.68 366.864 558.075 369.782 556.416 372.666L555.765 372.292C554.109 375.172 552.399 378.018 550.636 380.829L551.271 381.227C549.501 384.05 547.678 386.837 545.804 389.588L545.184 389.166C543.314 391.911 541.392 394.619 539.421 397.29L540.024 397.736C538.047 400.415 536.019 403.057 533.942 405.659L533.355 405.191C531.284 407.787 529.165 410.343 526.997 412.859L527.565 413.349C525.393 415.871 523.172 418.354 520.905 420.795L520.356 420.284C518.097 422.717 515.793 425.107 513.443 427.456L513.973 427.986C511.619 430.339 509.221 432.649 506.779 434.915L506.268 434.365C503.836 436.622 501.36 438.836 498.842 441.004L499.331 441.572C496.809 443.744 494.246 445.871 491.641 447.951L491.173 447.365C488.581 449.436 485.949 451.46 483.277 453.437L483.723 454.04C481.05 456.018 478.337 457.95 475.587 459.832L475.163 459.213C472.426 461.087 469.652 462.912 466.841 464.688L467.242 465.322C464.43 467.098 461.582 468.826 458.699 470.502L458.322 469.854C455.454 471.521 452.552 473.138 449.617 474.703L449.97 475.365C447.038 476.929 444.072 478.442 441.075 479.901L440.747 479.227C437.767 480.679 434.755 482.078 431.714 483.424L432.017 484.11C428.977 485.455 425.907 486.747 422.808 487.984L422.53 487.288C419.45 488.517 416.342 489.693 413.207 490.814L413.459 491.52C410.332 492.638 407.179 493.701 403.999 494.708L403.773 493.993C400.616 494.992 397.433 495.937 394.226 496.825L394.426 497.548C391.224 498.435 387.999 499.265 384.75 500.039L384.576 499.309C381.352 500.077 378.104 500.788 374.835 501.441L374.982 502.177C371.73 502.827 368.457 503.42 365.163 503.955L365.043 503.215C361.777 503.745 358.491 504.219 355.187 504.634L355.28 505.378C351.986 505.792 348.673 506.148 345.343 506.445L345.276 505.698C341.979 505.992 338.664 506.228 335.333 506.406L335.373 507.155C332.065 507.331 328.741 507.449 325.402 507.508L325.389 506.758C323.726 506.788 322.059 506.803 320.389 506.803C318.719 506.803 317.053 506.788 315.39 506.758L315.376 507.508C312.038 507.449 308.714 507.331 305.406 507.155L305.446 506.406C302.115 506.228 298.8 505.992 295.502 505.698L295.436 506.445C292.105 506.148 288.793 505.792 285.498 505.378L285.592 504.634C282.287 504.219 279.001 503.745 275.735 503.215L275.615 503.955C272.322 503.42 269.048 502.827 265.796 502.177L265.943 501.441C262.674 500.788 259.427 500.077 256.202 499.309L256.029 500.039C252.78 499.265 249.554 498.435 246.353 497.548L246.553 496.825C243.346 495.937 240.163 494.992 237.006 493.993L236.779 494.708C233.6 493.701 230.446 492.638 227.319 491.52L227.572 490.814C224.436 489.693 221.328 488.517 218.248 487.288L217.97 487.984C214.871 486.747 211.801 485.455 208.761 484.11L209.065 483.424C206.023 482.078 203.012 480.679 200.032 479.227L199.703 479.901C196.706 478.442 193.741 476.929 190.808 475.365L191.161 474.703C188.226 473.138 185.324 471.521 182.457 469.854L182.08 470.502C179.197 468.826 176.349 467.098 173.536 465.322L173.937 464.688C171.127 462.912 168.352 461.087 165.615 459.213L165.191 459.832C162.441 457.95 159.729 456.018 157.055 454.04L157.501 453.437C154.83 451.46 152.197 449.436 149.605 447.365L149.137 447.951C146.533 445.871 143.969 443.744 141.447 441.572L141.937 441.004C139.419 438.836 136.943 436.622 134.51 434.365L134 434.915C131.558 432.649 129.159 430.339 126.805 427.986L127.335 427.456C124.986 425.107 122.681 422.717 120.423 420.284L119.873 420.795C117.606 418.354 115.386 415.871 113.213 413.349L113.781 412.859C111.614 410.343 109.494 407.787 107.423 405.191L106.837 405.659C104.76 403.057 102.732 400.415 100.754 397.736L101.358 397.29C99.3859 394.619 97.4644 391.911 95.5943 389.166L94.9745 389.588C93.1 386.837 91.2771 384.05 89.5072 381.227L90.1426 380.829C88.3796 378.018 86.6693 375.171 85.013 372.292L84.3629 372.666C82.7038 369.782 81.0988 366.864 79.5491 363.914L80.2131 363.566C78.6702 360.629 77.1823 357.66 75.7508 354.66L75.0739 354.983C73.6409 351.981 72.2641 348.947 70.9448 345.884L71.6337 345.588C70.3223 342.543 69.0679 339.469 67.872 336.367L67.1722 336.637C65.9765 333.536 64.839 330.407 63.761 327.252L64.4708 327.009C63.3994 323.873 62.387 320.711 61.4348 317.524L60.7162 317.739C59.7646 314.553 58.873 311.343 58.0426 308.11L58.769 307.923C57.9451 304.715 57.1816 301.483 56.4799 298.229L55.7467 298.387C55.0471 295.143 54.4086 291.877 53.8325 288.59L54.5713 288.46C53.9999 285.2 53.49 281.92 53.0429 278.62L52.2997 278.721C51.8538 275.43 51.4702 272.12 51.15 268.792L51.8965 268.72C51.5796 265.427 51.3249 262.115 51.1337 258.787L50.385 258.83C50.195 255.522 50.0675 252.198 50.0036 248.859L50.7535 248.844C50.7217 247.182 50.7057 245.516 50.7057 243.846C50.7057 242.177 50.7217 240.51 50.7535 238.848L50.0036 238.834C50.0675 235.495 50.1949 232.171 50.385 228.863L51.1337 228.906C51.3249 225.578 51.5795 222.266 51.8965 218.972L51.1499 218.9C51.4702 215.572 51.8538 212.262 52.2997 208.972L53.0429 209.072C53.49 205.773 53.9998 202.492 54.5712 199.232L53.8325 199.103C54.4086 195.816 55.0471 192.55 55.7467 189.306L56.4799 189.464C57.1816 186.21 57.9451 182.978 58.769 179.769L58.0426 179.583C58.873 176.349 59.7646 173.139 60.7161 169.954L61.4348 170.169C62.387 166.981 63.3994 163.819 64.4707 160.683L63.761 160.441C64.839 157.285 65.9765 154.157 67.1722 151.055L67.872 151.325C69.0679 148.223 70.3222 145.15 71.6337 142.105L70.9448 141.808C72.264 138.745 73.6408 135.712 75.0739 132.709L75.7508 133.032C77.1823 130.033 78.6702 127.064 80.2131 124.127L79.5491 123.778C81.0988 120.828 82.7038 117.911 84.3629 115.026L85.013 115.4C86.6693 112.521 88.3796 109.675 90.1426 106.864L89.5072 106.465C91.2772 103.643 93.1001 100.855 94.9745 98.1042L95.5943 98.5265C97.4644 95.7817 99.3859 93.0731 101.358 90.402L100.754 89.9566C102.732 87.2774 104.76 84.6358 106.837 82.0333L107.423 82.5011C109.494 79.9058 111.614 77.3495 113.781 74.8332L113.213 74.3438C115.386 71.8211 117.606 69.3386 119.873 66.8978L120.423 67.4081C122.681 64.9759 124.986 62.5851 127.335 60.2369L126.805 59.7064C129.159 57.3537 131.558 55.0437 134 52.7778L134.51 53.3275C136.943 51.0702 139.419 48.8567 141.937 46.6884L141.447 46.1201C143.969 43.9483 146.533 41.8216 149.137 39.7415L149.605 40.3275C152.197 38.2569 154.83 36.2324 157.501 34.2554L157.055 33.6525C159.729 31.674 162.441 29.7428 165.191 27.8604L165.615 28.4792C168.352 26.6057 171.127 24.7804 173.937 23.0048L173.537 22.3707C176.349 20.594 179.197 18.8669 182.08 17.1905L182.457 17.8389C185.324 16.1715 188.226 14.5546 191.161 12.9893L190.808 12.3275C193.741 10.7635 196.706 9.2509 199.703 7.791L200.032 8.46527C203.012 7.01379 206.023 5.61453 209.064 4.26871L208.761 3.58286C211.801 2.23767 214.871 0.945738 217.97 -0.291723L218.248 0.404799C221.328 -0.824989 224.436 -2.00083 227.572 -3.12152L227.319 -3.82777C230.446 -4.94528 233.6 -6.00809 236.779 -7.01503L237.006 -6.30003C240.163 -7.29992 243.346 -8.24457 246.553 -9.13279L246.353 -9.85558C249.554 -10.7423 252.78 -11.5729 256.029 -12.3462L256.202 -11.6166C259.427 -12.3842 262.674 -13.0953 265.943 -13.7487L265.796 -14.4842C269.048 -15.1343 272.322 -15.7274 275.615 -16.2625L275.735 -15.5222C279.001 -16.0529 282.287 -16.5263 285.592 -16.9413L285.498 -17.6855C288.792 -18.0993 292.105 -18.4552 295.435 -18.7523L295.502 -18.0053C298.8 -18.2995 302.115 -18.5358 305.446 -18.7132L305.406 -19.4621C308.714 -19.6383 312.038 -19.7564 315.376 -19.8156L315.389 -19.0657C317.052 -19.0952 318.719 -19.11 320.389 -19.11C322.059 -19.11 323.726 -19.0952 325.389 -19.0658L325.402 -19.8156C328.741 -19.7565 332.064 -19.6383 335.372 -19.4621L335.333 -18.7132C338.664 -18.5358 341.978 -18.2995 345.276 -18.0053L345.343 -18.7523C348.673 -18.4552 351.986 -18.0993 355.28 -17.6855L355.187 -16.9413C358.491 -16.5263 361.777 -16.0529 365.043 -15.5222L365.163 -16.2625C368.457 -15.7274 371.73 -15.1343 374.982 -14.4842L374.835 -13.7488C378.104 -13.0953 381.351 -12.3843 384.576 -11.6167L384.75 -12.3463C387.998 -11.5729 391.224 -10.7423 394.426 -9.85559L394.226 -9.1328C397.433 -8.24458 400.616 -7.29994 403.773 -6.30004L403.999 -7.01505C407.179 -6.00811 410.332 -4.94529 413.459 -3.82778L413.207 -3.12153C416.342 -2.00084 419.45 -0.825003 422.53 0.404783L422.808 -0.29174C425.907 0.945723 428.977 2.23766 432.017 3.58285L431.714 4.26871C434.755 5.61452 437.767 7.01379 440.747 8.46527L441.075 7.791C444.072 9.2509 447.038 10.7635 449.97 12.3275L449.617 12.9893C452.552 14.5546 455.454 16.1715 458.322 17.8389L458.699 17.1905C461.582 18.8669 464.43 20.594 467.242 22.3708L466.841 23.0048C469.652 24.7804 472.426 26.6057 475.163 28.4793L475.587 27.8604C478.337 29.7429 481.05 31.674 483.723 33.6526L483.277 34.2554C485.949 36.2324 488.581 38.2569 491.173 40.3275L491.641 39.7415C494.246 41.8217 496.809 43.9483 499.331 46.1201L498.842 46.6884C501.36 48.8567 503.836 51.0702 506.269 53.3276L506.779 52.7778C509.221 55.0437 511.619 57.3537 513.973 59.7065L513.443 60.2369C515.793 62.5851 518.097 64.9759 520.356 67.4082L520.905 66.8978C523.172 69.3387 525.393 71.8211 527.565 74.3438L526.997 74.8332C529.165 77.3495 531.284 79.9059 533.355 82.5011L533.942 82.0333C536.019 84.6359 538.047 87.2774 540.024 89.9566L539.421 90.4021C541.393 93.0731 543.314 95.7817 545.184 98.5265L545.804 98.1042C547.678 100.855 549.501 103.643 551.271 106.465L550.636 106.864C552.399 109.675 554.109 112.521 555.765 115.4L556.416 115.027C558.075 117.911 559.68 120.828 561.229 123.778L560.565 124.127C562.108 127.064 563.596 130.033 565.028 133.032L565.705 132.709C567.138 135.712 568.514 138.745 569.834 141.808L569.145 142.105C570.456 145.15 571.711 148.223 572.906 151.325L573.606 151.055C574.802 154.156 575.939 157.285 577.017 160.441L576.308 160.683C577.379 163.819 578.391 166.981 579.344 170.169L580.062 169.954C581.014 173.139 581.905 176.349 582.736 179.583L582.009 179.769C582.833 182.978 583.597 186.21 584.299 189.464L585.032 189.305C585.731 192.55 586.37 195.816 586.946 199.103L586.207 199.232C586.779 202.492 587.288 205.772 587.736 209.072L588.479 208.972C588.925 212.262 589.308 215.572 589.628 218.9L588.882 218.972C589.199 222.266 589.454 225.578 589.645 228.906L590.393 228.863Z" stroke="white" stroke-opacity="0.08" stroke-width="1.5" stroke-dasharray="10 10"/>
<path d="M488.365 230.247C488.672 233.539 488.879 236.859 488.982 240.205L488.232 240.228C488.283 241.881 488.309 243.541 488.309 245.207C488.309 246.872 488.283 248.532 488.232 250.185L488.982 250.208C488.879 253.554 488.672 256.874 488.365 260.166L487.618 260.096C487.31 263.41 486.898 266.694 486.388 269.947L487.129 270.063C486.611 273.367 485.992 276.639 485.273 279.875L484.541 279.712C483.821 282.958 483.001 286.168 482.085 289.338L482.805 289.546C481.878 292.753 480.854 295.919 479.735 299.042L479.029 298.789C477.909 301.913 476.694 304.994 475.387 308.028L476.076 308.325C474.757 311.386 473.345 314.401 471.844 317.365L471.175 317.026C469.676 319.984 468.087 322.891 466.413 325.744L467.059 326.124C465.374 328.996 463.601 331.813 461.745 334.572L461.122 334.153C459.273 336.902 457.34 339.593 455.328 342.222L455.923 342.678C453.901 345.32 451.798 347.901 449.619 350.416L449.052 349.925C446.885 352.427 444.64 354.865 442.323 357.234L442.86 357.758C440.535 360.136 438.137 362.445 435.67 364.682L435.167 364.126C432.715 366.349 430.195 368.501 427.609 370.579L428.079 371.163C425.489 373.244 422.834 375.25 420.117 377.179L419.683 376.567C416.986 378.481 414.229 380.318 411.413 382.074L411.81 382.711C408.993 384.468 406.118 386.146 403.189 387.74L402.83 387.082C399.927 388.662 396.97 390.16 393.963 391.572L394.282 392.251C391.28 393.661 388.228 394.986 385.13 396.224L384.852 395.527C381.786 396.751 378.675 397.889 375.521 398.937L375.757 399.649C372.612 400.694 369.424 401.65 366.197 402.515L366.003 401.79C362.816 402.644 359.59 403.408 356.33 404.078L356.481 404.813C353.238 405.48 349.959 406.056 346.649 406.537L346.541 405.795C343.283 406.269 339.993 406.65 336.675 406.937L336.74 407.684C333.446 407.969 330.125 408.161 326.779 408.257L326.757 407.507C325.103 407.554 323.443 407.578 321.776 407.578C320.11 407.578 318.45 407.554 316.796 407.507L316.774 408.257C313.428 408.161 310.107 407.969 306.813 407.684L306.878 406.937C303.56 406.65 300.27 406.269 297.012 405.795L296.904 406.537C293.594 406.056 290.315 405.48 287.072 404.813L287.223 404.078C283.963 403.408 280.737 402.644 277.55 401.79L277.356 402.515C274.129 401.65 270.941 400.694 267.796 399.649L268.032 398.937C264.878 397.889 261.767 396.751 258.701 395.527L258.423 396.224C255.325 394.986 252.273 393.661 249.271 392.251L249.59 391.572C246.583 390.16 243.626 388.662 240.723 387.082L240.364 387.74C237.435 386.146 234.56 384.468 231.742 382.711L232.139 382.074C229.324 380.318 226.566 378.481 223.87 376.567L223.436 377.179C220.719 375.25 218.064 373.244 215.474 371.163L215.944 370.579C213.358 368.501 210.838 366.349 208.386 364.126L207.883 364.682C205.416 362.445 203.018 360.136 200.693 357.758L201.23 357.234C198.913 354.865 196.668 352.427 194.5 349.925L193.934 350.416C191.755 347.901 189.652 345.32 187.63 342.678L188.225 342.222C186.213 339.593 184.28 336.902 182.43 334.153L181.808 334.572C179.952 331.813 178.179 328.996 176.494 326.124L177.14 325.744C175.466 322.891 173.877 319.984 172.378 317.026L171.709 317.365C170.208 314.401 168.796 311.387 167.477 308.325L168.166 308.028C166.859 304.994 165.644 301.913 164.524 298.789L163.818 299.042C162.699 295.919 161.674 292.753 160.748 289.546L161.468 289.338C160.552 286.168 159.732 282.958 159.012 279.712L158.28 279.875C157.561 276.639 156.942 273.367 156.424 270.063L157.164 269.947C156.654 266.694 156.243 263.41 155.934 260.096L155.188 260.166C154.881 256.874 154.674 253.554 154.571 250.208L155.32 250.185C155.269 248.532 155.244 246.872 155.244 245.207C155.244 243.541 155.269 241.881 155.32 240.228L154.571 240.205C154.674 236.859 154.881 233.539 155.188 230.247L155.934 230.317C156.243 227.004 156.654 223.719 157.164 220.466L156.424 220.35C156.942 217.046 157.561 213.774 158.28 210.538L159.012 210.701C159.732 207.455 160.552 204.245 161.468 201.075L160.748 200.867C161.674 197.66 162.699 194.494 163.818 191.371L164.524 191.625C165.644 188.5 166.859 185.419 168.166 182.385L167.477 182.089C168.796 179.027 170.208 176.012 171.709 173.049L172.378 173.387C173.877 170.429 175.466 167.522 177.14 164.669L176.494 164.289C178.179 161.417 179.952 158.6 181.808 155.842L182.43 156.26C184.28 153.511 186.213 150.82 188.225 148.191L187.63 147.735C189.652 145.093 191.755 142.513 193.934 139.997L194.5 140.488C196.668 137.986 198.913 135.548 201.23 133.179L200.693 132.655C203.018 130.277 205.416 127.968 207.883 125.731L208.386 126.287C210.838 124.064 213.358 121.912 215.944 119.834L215.474 119.25C218.064 117.169 220.719 115.163 223.436 113.234L223.87 113.846C226.566 111.932 229.324 110.095 232.139 108.339L231.742 107.702C234.56 105.945 237.435 104.267 240.364 102.673L240.723 103.331C243.626 101.751 246.583 100.253 249.589 98.8409L249.271 98.1621C252.273 96.752 255.324 95.4267 258.423 94.1895L258.701 94.886C261.767 93.6618 264.878 92.5242 268.032 91.4763L267.795 90.7646C270.941 89.7194 274.129 88.763 277.356 87.8985L277.55 88.6229C280.737 87.7692 283.962 87.0054 287.223 86.3346L287.072 85.6C290.315 84.9327 293.594 84.357 296.904 83.8759L297.011 84.6181C300.27 84.1444 303.56 83.7628 306.878 83.476L306.813 82.7288C310.107 82.444 313.428 82.2524 316.774 82.1566L316.796 82.9063C318.45 82.8589 320.11 82.8351 321.776 82.8351C323.443 82.8351 325.103 82.8589 326.757 82.9063L326.779 82.1566C330.125 82.2524 333.446 82.444 336.74 82.7288L336.675 83.476C339.993 83.7628 343.283 84.1444 346.541 84.6181L346.649 83.8759C349.959 84.357 353.237 84.9327 356.481 85.6L356.33 86.3346C359.59 87.0054 362.816 87.7691 366.003 88.6229L366.197 87.8985C369.424 88.763 372.612 89.7194 375.757 90.7646L375.521 91.4763C378.675 92.5242 381.786 93.6618 384.852 94.886L385.13 94.1895C388.228 95.4267 391.28 96.752 394.282 98.1621L393.963 98.8409C396.97 100.253 399.927 101.751 402.83 103.331L403.189 102.673C406.118 104.267 408.993 105.945 411.81 107.702L411.413 108.339C414.229 110.095 416.986 111.932 419.683 113.846L420.117 113.234C422.834 115.163 425.489 117.169 428.079 119.25L427.609 119.834C430.195 121.912 432.715 124.064 435.167 126.287L435.67 125.731C438.137 127.968 440.535 130.277 442.86 132.655L442.323 133.179C444.64 135.548 446.884 137.986 449.052 140.488L449.619 139.997C451.798 142.512 453.901 145.093 455.923 147.735L455.328 148.191C457.34 150.82 459.273 153.511 461.122 156.26L461.745 155.842C463.601 158.6 465.374 161.417 467.059 164.289L466.412 164.669C468.087 167.522 469.676 170.429 471.175 173.387L471.844 173.049C473.345 176.012 474.757 179.027 476.076 182.089L475.387 182.385C476.694 185.419 477.909 188.5 479.029 191.624L479.735 191.371C480.854 194.494 481.878 197.66 482.805 200.867L482.085 201.075C483.001 204.245 483.821 207.455 484.541 210.701L485.273 210.538C485.992 213.774 486.611 217.046 487.129 220.35L486.388 220.466C486.898 223.719 487.31 227.004 487.618 230.317L488.365 230.247Z" stroke="white" stroke-opacity="0.15" stroke-width="1.5" stroke-dasharray="10 10"/>
<path d="M559.904 230.423C560.109 233.65 560.246 236.894 560.315 240.156L559.565 240.171C559.6 241.792 559.617 243.417 559.617 245.046C559.617 246.674 559.6 248.299 559.565 249.92L560.315 249.936C560.246 253.197 560.109 256.442 559.904 259.669L559.155 259.621C558.949 262.864 558.675 266.088 558.333 269.294L559.079 269.373C558.734 272.617 558.32 275.842 557.839 279.045L557.098 278.934C556.615 282.148 556.065 285.341 555.449 288.511L556.185 288.655C555.564 291.854 554.875 295.03 554.12 298.181L553.391 298.007C552.635 301.164 551.813 304.296 550.927 307.402L551.648 307.608C550.754 310.739 549.795 313.843 548.772 316.919L548.061 316.682C547.037 319.76 545.95 322.81 544.799 325.831L545.5 326.098C544.342 329.139 543.12 332.15 541.837 335.13L541.148 334.833C539.865 337.812 538.52 340.759 537.115 343.673L537.79 343.999C536.377 346.929 534.903 349.826 533.371 352.687L532.709 352.333C531.179 355.19 529.589 358.012 527.942 360.798L528.587 361.18C526.932 363.978 525.22 366.74 523.451 369.463L522.822 369.054C521.057 371.771 519.235 374.45 517.359 377.089L517.971 377.523C516.088 380.172 514.15 382.781 512.159 385.348L511.566 384.888C509.581 387.448 507.543 389.966 505.453 392.441L506.026 392.925C503.931 395.407 501.783 397.846 499.586 400.241L499.033 399.733C496.844 402.119 494.605 404.46 492.318 406.755L492.849 407.284C490.556 409.585 488.216 411.839 485.828 414.045L485.319 413.495C482.942 415.691 480.519 417.841 478.05 419.942L478.536 420.513C476.064 422.617 473.547 424.673 470.986 426.678L470.524 426.087C467.975 428.082 465.384 430.027 462.752 431.921L463.19 432.53C460.554 434.425 457.877 436.269 455.161 438.06L454.748 437.434C452.047 439.214 449.308 440.941 446.53 442.614L446.917 443.257C444.138 444.931 441.321 446.551 438.469 448.115L438.108 447.457C435.273 449.012 432.402 450.512 429.496 451.955L429.83 452.626C426.925 454.069 423.986 455.456 421.014 456.784L420.708 456.1C417.757 457.419 414.773 458.682 411.758 459.886L412.036 460.582C409.024 461.785 405.981 462.929 402.909 464.014L402.659 463.307C399.613 464.383 396.537 465.399 393.434 466.356L393.655 467.073C390.559 468.027 387.436 468.921 384.288 469.754L384.096 469.029C380.975 469.855 377.828 470.62 374.657 471.324L374.82 472.056C371.658 472.758 368.472 473.398 365.264 473.976L365.131 473.238C361.953 473.811 358.753 474.322 355.532 474.77L355.635 475.513C352.426 475.959 349.196 476.343 345.947 476.664L345.874 475.918C342.666 476.234 339.439 476.489 336.195 476.68L336.239 477.428C333.012 477.619 329.767 477.746 326.506 477.81L326.491 477.06C324.87 477.092 323.245 477.108 321.615 477.108C319.986 477.108 318.361 477.092 316.74 477.06L316.725 477.81C313.464 477.746 310.219 477.619 306.992 477.428L307.036 476.68C303.792 476.489 300.565 476.234 297.357 475.917L297.283 476.664C294.035 476.343 290.805 475.959 287.596 475.513L287.699 474.77C284.478 474.322 281.278 473.811 278.1 473.238L277.967 473.976C274.759 473.398 271.573 472.758 268.411 472.056L268.574 471.324C265.403 470.62 262.256 469.855 259.135 469.029L258.943 469.754C255.794 468.921 252.672 468.027 249.576 467.073L249.797 466.356C246.694 465.399 243.618 464.383 240.571 463.307L240.322 464.014C237.25 462.929 234.207 461.785 231.195 460.582L231.473 459.886C228.458 458.682 225.474 457.419 222.523 456.1L222.217 456.784C219.245 455.456 216.306 454.069 213.401 452.626L213.735 451.955C210.829 450.512 207.958 449.012 205.123 447.457L204.762 448.115C201.909 446.551 199.093 444.931 196.314 443.257L196.701 442.614C193.923 440.941 191.183 439.214 188.483 437.434L188.07 438.06C185.354 436.269 182.677 434.425 180.041 432.53L180.479 431.921C177.847 430.027 175.255 428.082 172.707 426.087L172.245 426.678C169.684 424.673 167.167 422.617 164.694 420.513L165.181 419.942C162.712 417.841 160.289 415.692 157.912 413.495L157.403 414.045C155.015 411.839 152.674 409.585 150.382 407.284L150.913 406.755C148.626 404.46 146.387 402.119 144.198 399.734L143.645 400.241C141.448 397.846 139.3 395.407 137.205 392.925L137.778 392.441C135.688 389.966 133.65 387.448 131.665 384.888L131.072 385.348C129.081 382.781 127.143 380.172 125.26 377.523L125.871 377.089C123.995 374.45 122.174 371.771 120.409 369.054L119.78 369.463C118.011 366.74 116.298 363.978 114.644 361.18L115.289 360.798C113.642 358.012 112.052 355.19 110.521 352.333L109.86 352.687C108.327 349.826 106.854 346.929 105.441 343.999L106.116 343.673C104.711 340.759 103.366 337.812 102.083 334.833L101.394 335.13C100.111 332.15 98.889 329.139 97.7307 326.098L98.4316 325.831C97.2812 322.81 96.1935 319.761 95.17 316.682L94.4583 316.919C93.4354 313.843 92.4765 310.739 91.5829 307.608L92.3041 307.402C91.4175 304.296 90.5956 301.164 89.8397 298.006L89.1104 298.181C88.3559 295.03 87.6671 291.854 87.0454 288.655L87.7816 288.511C87.1655 285.341 86.6156 282.148 86.1332 278.934L85.3915 279.045C84.9109 275.842 84.4971 272.617 84.1517 269.373L84.8975 269.294C84.5562 266.088 84.2818 262.864 84.0757 259.621L83.3272 259.669C83.1221 256.442 82.9844 253.197 82.9155 249.936L83.6653 249.92C83.6311 248.299 83.6139 246.674 83.6139 245.046C83.6139 243.417 83.6311 241.792 83.6653 240.171L82.9155 240.156C82.9844 236.894 83.1221 233.65 83.3272 230.423L84.0757 230.47C84.2818 227.227 84.5562 224.003 84.8975 220.797L84.1517 220.718C84.4971 217.474 84.9109 214.249 85.3915 211.046L86.1332 211.158C86.6156 207.943 87.1655 204.75 87.7816 201.58L87.0454 201.437C87.6671 198.237 88.3559 195.061 89.1104 191.91L89.8398 192.085C90.5956 188.928 91.4175 185.795 92.3041 182.689L91.5829 182.483C92.4765 179.352 93.4354 176.248 94.4583 173.172L95.17 173.409C96.1935 170.331 97.2812 167.281 98.4316 164.26L97.7307 163.994C98.889 160.952 100.111 157.941 101.394 154.962L102.083 155.258C103.366 152.279 104.711 149.332 106.116 146.418L105.441 146.092C106.854 143.162 108.327 140.266 109.86 137.404L110.521 137.758C112.052 134.901 113.642 132.079 115.289 129.293L114.643 128.911C116.298 126.113 118.011 123.352 119.78 120.628L120.409 121.037C122.174 118.32 123.995 115.641 125.871 113.002L125.26 112.568C127.143 109.919 129.081 107.31 131.072 104.743L131.665 105.203C133.65 102.643 135.688 100.125 137.778 97.6504L137.205 97.1665C139.3 94.6843 141.448 92.2452 143.645 89.8506L144.198 90.3577C146.387 87.9723 148.626 85.6313 150.913 83.3363L150.382 82.8068C152.674 80.5066 155.015 78.2525 157.402 76.0459L157.912 76.5967C160.289 74.3997 162.712 72.2501 165.18 70.1493L164.694 69.5782C167.167 67.4739 169.684 65.4185 172.245 63.4136L172.707 64.0041C175.255 62.0089 177.847 60.0639 180.479 58.1705L180.041 57.5616C182.677 55.6661 185.353 53.8222 188.07 52.0314L188.483 52.6576C191.183 50.8776 193.923 49.1501 196.701 47.4768L196.314 46.8344C199.093 45.1605 201.909 43.5407 204.762 41.9763L205.123 42.6339C207.958 41.0793 210.829 39.5796 213.735 38.1365L213.401 37.4648C216.306 36.022 219.245 34.6356 222.217 33.3068L222.523 33.9915C225.474 32.6719 228.458 31.4094 231.473 30.2055L231.195 29.509C234.207 28.3063 237.25 27.1618 240.322 26.0771L240.571 26.7843C243.618 25.7086 246.694 24.6917 249.797 23.7352L249.576 23.0185C252.672 22.0644 255.794 21.1701 258.943 20.3371L259.135 21.0622C262.256 20.2363 265.403 19.4709 268.574 18.7672L268.411 18.035C271.573 17.3333 274.759 16.6928 277.967 16.1149L278.1 16.853C281.278 16.2805 284.478 15.7695 287.699 15.3215L287.596 14.5786C290.805 14.1322 294.035 13.748 297.284 13.4273L297.357 14.1737C300.565 13.8571 303.792 13.6026 307.036 13.4114L306.992 12.6627C310.219 12.4726 313.464 12.3449 316.725 12.281L316.74 13.0309C318.361 12.9991 319.986 12.9832 321.615 12.9832C323.245 12.9832 324.87 12.9991 326.491 13.0309L326.506 12.281C329.767 12.3449 333.012 12.4726 336.239 12.6627L336.195 13.4114C339.439 13.6026 342.666 13.8571 345.874 14.1737L345.947 13.4273C349.196 13.748 352.426 14.1322 355.635 14.5786L355.532 15.3215C358.753 15.7695 361.953 16.2805 365.131 16.853L365.264 16.1149C368.472 16.6928 371.658 17.3333 374.82 18.035L374.657 18.7672C377.828 19.4709 380.975 20.2364 384.096 21.0622L384.288 20.3371C387.436 21.1701 390.559 22.0644 393.655 23.0185L393.434 23.7352C396.537 24.6917 399.613 25.7086 402.659 26.7843L402.909 26.0771C405.981 27.1618 409.024 28.3063 412.036 29.509L411.758 30.2055C414.773 31.4094 417.756 32.6719 420.708 33.9915L421.014 33.3068C423.986 34.6355 426.925 36.022 429.83 37.4647L429.496 38.1365C432.402 39.5796 435.273 41.0793 438.108 42.6339L438.469 41.9763C441.321 43.5406 444.138 45.1605 446.917 46.8343L446.53 47.4768C449.308 49.1501 452.047 50.8775 454.748 52.6576L455.161 52.0314C457.877 53.8222 460.554 55.6661 463.19 57.5615L462.752 58.1704C465.384 60.0638 467.975 62.0089 470.523 64.004L470.986 63.4135C473.546 65.4185 476.064 67.4738 478.536 69.5781L478.05 70.1493C480.519 72.25 482.942 74.3997 485.319 76.5966L485.828 76.0458C488.216 78.2524 490.556 80.5066 492.849 82.8068L492.318 83.3362C494.605 85.6312 496.844 87.9723 499.033 90.3577L499.586 89.8506C501.783 92.2451 503.93 94.6842 506.026 97.1665L505.453 97.6503C507.543 100.125 509.581 102.643 511.566 105.203L512.159 104.743C514.15 107.31 516.088 109.919 517.971 112.568L517.359 113.002C519.235 115.641 521.057 118.32 522.822 121.037L523.45 120.628C525.22 123.351 526.932 126.113 528.587 128.911L527.942 129.293C529.589 132.079 531.179 134.901 532.709 137.758L533.37 137.404C534.903 140.265 536.377 143.162 537.79 146.092L537.115 146.418C538.52 149.332 539.865 152.279 541.148 155.258L541.837 154.961C543.12 157.941 544.342 160.952 545.5 163.993L544.799 164.26C545.95 167.281 547.037 170.331 548.061 173.409L548.772 173.172C549.795 176.248 550.754 179.352 551.648 182.483L550.927 182.689C551.813 185.795 552.635 188.928 553.391 192.085L554.12 191.91C554.875 195.061 555.564 198.238 556.185 201.437L555.449 201.58C556.065 204.75 556.615 207.943 557.098 211.158L557.839 211.046C558.32 214.25 558.734 217.474 559.079 220.718L558.333 220.797C558.675 224.003 558.949 227.227 559.155 230.47L559.904 230.423Z" stroke="white" stroke-opacity="0.09" stroke-width="1.5" stroke-dasharray="10 10"/>
<path d="M622.429 228.556C622.606 231.933 622.725 235.325 622.784 238.732L622.035 238.745C622.064 240.444 622.079 242.146 622.079 243.851C622.079 245.557 622.064 247.259 622.035 248.958L622.784 248.971C622.725 252.377 622.606 255.769 622.429 259.147L621.68 259.107C621.502 262.511 621.264 265.9 620.968 269.272L621.715 269.338C621.417 272.736 621.06 276.117 620.644 279.481L619.9 279.389C619.484 282.761 619.009 286.115 618.476 289.451L619.217 289.569C618.679 292.938 618.083 296.289 617.429 299.619L616.693 299.475C616.039 302.811 615.326 306.128 614.556 309.423L615.287 309.594C614.513 312.91 613.681 316.205 612.793 319.478L612.069 319.281C611.18 322.561 610.233 325.818 609.231 329.052L609.948 329.274C608.939 332.529 607.875 335.759 606.755 338.965L606.047 338.718C604.928 341.924 603.753 345.104 602.525 348.259L603.223 348.531C601.988 351.703 600.699 354.848 599.356 357.966L598.667 357.67C597.323 360.789 595.926 363.881 594.477 366.945L595.155 367.265C593.699 370.342 592.191 373.389 590.631 376.407L589.965 376.063C588.407 379.077 586.797 382.062 585.137 385.015L585.791 385.383C584.124 388.349 582.406 391.284 580.639 394.188L579.998 393.798C578.233 396.696 576.419 399.562 574.557 402.395L575.183 402.807C573.315 405.649 571.398 408.457 569.434 411.231L568.822 410.798C566.861 413.566 564.853 416.3 562.799 418.998L563.396 419.453C561.337 422.158 559.231 424.828 557.08 427.462L556.499 426.987C554.353 429.613 552.163 432.203 549.928 434.755L550.493 435.249C548.253 437.807 545.969 440.327 543.643 442.808L543.095 442.295C540.776 444.768 538.414 447.203 536.011 449.597L536.54 450.129C534.133 452.527 531.683 454.886 529.194 457.203L528.683 456.654C526.201 458.964 523.679 461.234 521.118 463.461L521.61 464.027C519.046 466.257 516.442 468.445 513.801 470.59L513.328 470.008C510.697 472.144 508.029 474.237 505.324 476.286L505.777 476.884C503.069 478.935 500.324 480.943 497.544 482.906L497.111 482.293C494.342 484.248 491.537 486.158 488.698 488.022L489.11 488.649C486.271 490.513 483.399 492.331 480.494 494.102L480.103 493.462C477.211 495.225 474.286 496.942 471.329 498.611L471.698 499.264C468.74 500.934 465.75 502.556 462.73 504.13L462.383 503.465C459.379 505.03 456.345 506.547 453.282 508.015L453.606 508.692C450.546 510.158 447.456 511.576 444.339 512.943L444.038 512.256C440.936 513.617 437.807 514.928 434.651 516.188L434.929 516.885C431.775 518.144 428.595 519.353 425.39 520.51L425.135 519.805C421.953 520.953 418.746 522.051 415.515 523.097L415.746 523.811C412.518 524.856 409.266 525.849 405.99 526.79L405.783 526.069C402.527 527.004 399.249 527.887 395.948 528.717L396.131 529.445C392.845 530.271 389.538 531.044 386.21 531.765L386.051 531.032C382.745 531.747 379.419 532.41 376.073 533.018L376.207 533.756C372.867 534.364 369.508 534.918 366.13 535.418L366.02 534.676C362.68 535.17 359.321 535.611 355.945 535.998L356.03 536.743C352.663 537.128 349.28 537.46 345.881 537.736L345.82 536.989C342.445 537.263 339.054 537.484 335.648 537.649L335.685 538.398C332.307 538.563 328.914 538.673 325.508 538.728L325.495 537.978C323.796 538.005 322.094 538.019 320.388 538.019C318.682 538.019 316.979 538.005 315.28 537.978L315.268 538.728C311.861 538.673 308.469 538.563 305.091 538.398L305.127 537.649C301.721 537.484 298.331 537.263 294.956 536.989L294.895 537.736C291.495 537.46 288.112 537.128 284.746 536.743L284.831 535.998C281.455 535.611 278.096 535.17 274.755 534.676L274.645 535.418C271.267 534.918 267.908 534.364 264.568 533.756L264.702 533.018C261.356 532.41 258.03 531.747 254.724 531.032L254.565 531.765C251.237 531.044 247.93 530.271 244.645 529.445L244.827 528.717C241.527 527.887 238.248 527.004 234.992 526.069L234.785 526.79C231.51 525.849 228.257 524.856 225.029 523.811L225.26 523.097C222.029 522.051 218.822 520.953 215.64 519.805L215.386 520.51C212.18 519.353 209 518.144 205.847 516.885L206.125 516.188C202.969 514.928 199.839 513.617 196.738 512.256L196.437 512.943C193.319 511.576 190.23 510.158 187.169 508.692L187.493 508.015C184.43 506.547 181.396 505.03 178.393 503.465L178.046 504.13C175.026 502.556 172.036 500.934 169.078 499.264L169.446 498.611C166.49 496.942 163.565 495.225 160.672 493.462L160.282 494.102C157.376 492.331 154.504 490.513 151.666 488.649L152.077 488.022C149.238 486.158 146.434 484.248 143.664 482.293L143.232 482.905C140.451 480.943 137.707 478.935 134.999 476.884L135.452 476.286C132.746 474.237 130.078 472.144 127.448 470.008L126.975 470.59C124.333 468.445 121.73 466.257 119.165 464.027L119.657 463.461C117.096 461.233 114.574 458.964 112.093 456.654L111.582 457.203C109.092 454.886 106.643 452.527 104.235 450.129L104.765 449.597C102.361 447.203 99.9992 444.768 97.68 442.295L97.1329 442.808C94.8063 440.327 92.5226 437.807 90.283 435.249L90.8472 434.755C88.6127 432.203 86.4221 429.613 84.2767 426.987L83.6959 427.462C81.5447 424.828 79.4388 422.158 77.3793 419.453L77.976 418.998C75.922 416.3 73.9142 413.566 71.9538 410.798L71.3417 411.231C69.3773 408.457 67.4603 405.649 65.592 402.807L66.2187 402.395C64.3562 399.562 62.5421 396.696 60.7776 393.798L60.137 394.188C58.3695 391.284 56.6516 388.349 54.9845 385.383L55.6384 385.015C53.9783 382.062 52.3686 379.077 50.8106 376.063L50.1444 376.407C48.5845 373.389 47.0763 370.341 45.6208 367.265L46.2987 366.945C44.8492 363.881 43.4521 360.789 42.1086 357.67L41.4198 357.966C40.0768 354.848 38.7871 351.703 37.552 348.531L38.2509 348.259C37.0222 345.104 35.8476 341.924 34.7282 338.718L34.0201 338.965C32.9006 335.759 31.8362 332.529 30.8278 329.274L31.5442 329.052C30.5423 325.818 29.5959 322.561 28.7062 319.281L27.9823 319.478C27.0945 316.205 26.2629 312.91 25.4887 309.594L26.219 309.423C25.4496 306.128 24.737 302.811 24.0821 299.475L23.3462 299.619C22.6925 296.289 22.0963 292.938 21.5585 289.569L22.2991 289.451C21.7668 286.115 21.2919 282.761 20.8755 279.389L20.1311 279.481C19.7157 276.117 19.3583 272.736 19.0601 269.338L19.8072 269.272C19.5112 265.9 19.2735 262.511 19.0952 259.107L18.3462 259.147C18.1692 255.769 18.0505 252.377 17.9911 248.971L18.741 248.958C18.7113 247.259 18.6964 245.557 18.6964 243.851C18.6964 242.146 18.7113 240.444 18.741 238.745L17.9911 238.732C18.0506 235.325 18.1692 231.933 18.3462 228.556L19.0952 228.595C19.2735 225.191 19.5112 221.803 19.8072 218.43L19.0601 218.365C19.3583 214.967 19.7157 211.585 20.1311 208.221L20.8755 208.313C21.2919 204.941 21.7668 201.587 22.2992 198.252L21.5585 198.133C22.0963 194.764 22.6925 191.414 23.3462 188.083L24.0821 188.227C24.737 184.891 25.4496 181.575 26.219 178.279L25.4887 178.109C26.2629 174.792 27.0945 171.497 27.9824 168.225L28.7062 168.421C29.5959 165.141 30.5423 161.884 31.5442 158.65L30.8278 158.428C31.8362 155.174 32.9007 151.943 34.0202 148.737L34.7282 148.984C35.8477 145.779 37.0223 142.598 38.2509 139.443L37.552 139.171C38.7872 135.999 40.0768 132.854 41.4198 129.736L42.1086 130.033C43.4522 126.913 44.8492 123.821 46.2988 120.758L45.6208 120.437C47.0763 117.361 48.5846 114.313 50.1444 111.295L50.8107 111.64C52.3687 108.625 53.9783 105.641 55.6384 102.687L54.9846 102.32C56.6517 99.3533 58.3695 96.418 60.137 93.5149L60.7776 93.9049C62.5421 91.0067 64.3562 88.1406 66.2187 85.3076L65.592 84.8956C67.4604 82.0538 69.3773 79.2454 71.3418 76.4713L71.9539 76.9048C73.9142 74.1365 75.922 71.4026 77.9761 68.7042L77.3793 68.2499C79.4388 65.5443 81.5447 62.8742 83.6959 60.2409L84.2767 60.7154C86.4222 58.0891 88.6127 55.4994 90.8473 52.9474L90.283 52.4533C92.5227 49.8955 94.8064 47.3754 97.133 44.8943L97.6801 45.4073C99.9992 42.9342 102.361 40.4998 104.765 38.1052L104.235 37.5739C106.643 35.1753 109.092 32.8167 111.582 30.499L112.093 31.048C114.574 28.7381 117.096 26.469 119.657 24.2418L119.165 23.6759C121.73 21.4458 124.333 19.2576 126.975 17.1126L127.448 17.6948C130.078 15.5588 132.746 13.4657 135.452 11.4164L134.999 10.8186C137.707 8.76714 140.451 6.75956 143.232 4.79696L143.664 5.40969C146.434 3.4548 149.238 1.54466 152.078 -0.319645L151.666 -0.946564C154.504 -2.81031 157.377 -4.62836 160.282 -6.39964L160.672 -5.75926C163.565 -7.52245 166.49 -9.23917 169.446 -10.9084L169.078 -11.5615C172.036 -13.2314 175.026 -14.8538 178.046 -16.4277L178.393 -15.7626C181.396 -17.3278 184.43 -18.8449 187.493 -20.3128L187.169 -20.9891C190.23 -22.4557 193.319 -23.8732 196.437 -25.2408L196.738 -24.554C199.839 -25.9145 202.969 -27.2255 206.125 -28.4858L205.847 -29.1823C209 -30.4415 212.18 -31.6503 215.386 -32.8076L215.64 -32.1022C218.822 -33.2508 222.029 -34.3486 225.26 -35.3946L225.029 -36.1082C228.257 -37.1532 231.51 -38.1466 234.785 -39.0874L234.992 -38.3665C238.248 -39.3017 241.527 -40.1848 244.827 -41.0147L244.645 -41.7421C247.93 -42.5683 251.238 -43.342 254.565 -44.0622L254.724 -43.3292C258.03 -44.0447 261.356 -44.7073 264.702 -45.316L264.568 -46.0539C267.908 -46.6616 271.268 -47.2158 274.645 -47.7155L274.755 -46.9736C278.096 -47.4678 281.455 -47.9087 284.831 -48.2951L284.746 -49.0403C288.112 -49.4257 291.496 -49.7571 294.895 -50.0338L294.956 -49.2863C298.331 -49.5609 301.721 -49.7814 305.127 -49.9468L305.091 -50.696C308.469 -50.8601 311.862 -50.9701 315.268 -51.0252L315.28 -50.2753C316.979 -50.3028 318.682 -50.3167 320.388 -50.3167C322.094 -50.3167 323.796 -50.3028 325.496 -50.2753L325.508 -51.0252C328.914 -50.9701 332.307 -50.8601 335.685 -50.696L335.649 -49.9468C339.054 -49.7814 342.445 -49.5609 345.82 -49.2863L345.881 -50.0338C349.28 -49.7571 352.663 -49.4257 356.03 -49.0403L355.945 -48.2951C359.321 -47.9087 362.68 -47.4678 366.02 -46.9736L366.13 -47.7155C369.508 -47.2158 372.867 -46.6616 376.208 -46.0539L376.073 -45.316C379.419 -44.7073 382.746 -44.0447 386.051 -43.3292L386.21 -44.0622C389.538 -43.342 392.845 -42.5683 396.131 -41.7421L395.948 -41.0147C399.249 -40.1847 402.527 -39.3017 405.783 -38.3665L405.99 -39.0874C409.266 -38.1466 412.518 -37.1532 415.746 -36.1082L415.515 -35.3946C418.746 -34.3486 421.953 -33.2508 425.135 -32.1021L425.39 -32.8076C428.595 -31.6503 431.776 -30.4415 434.929 -29.1823L434.651 -28.4858C437.807 -27.2255 440.936 -25.9145 444.038 -24.554L444.339 -25.2408C447.457 -23.8732 450.546 -22.4556 453.606 -20.9891L453.282 -20.3128C456.345 -18.8449 459.379 -17.3278 462.383 -15.7626L462.73 -16.4277C465.75 -14.8538 468.74 -13.2314 471.698 -11.5615L471.329 -10.9083C474.286 -9.23915 477.211 -7.52243 480.103 -5.75924L480.494 -6.39961C483.399 -4.62833 486.271 -2.81028 489.11 -0.946529L488.698 -0.319614C491.537 1.54469 494.342 3.45483 497.111 5.40971L497.544 4.79699C500.324 6.75958 503.069 8.76717 505.777 10.8186L505.324 11.4165C508.029 13.4657 510.697 15.5589 513.328 17.6948L513.801 17.1126C516.442 19.2577 519.046 21.4458 521.61 23.6759L521.118 24.2418C523.679 26.469 526.201 28.7381 528.683 31.048L529.194 30.4991C531.683 32.8167 534.133 35.1754 536.54 37.5739L536.011 38.1053C538.414 40.4998 540.776 42.9342 543.095 45.4074L543.643 44.8944C545.969 47.3755 548.253 49.8955 550.493 52.4533L549.928 52.9474C552.163 55.4994 554.353 58.0891 556.499 60.7154L557.08 60.241C559.231 62.8743 561.337 65.5443 563.396 68.2499L562.799 68.7042C564.854 71.4026 566.861 74.1365 568.822 76.9048L569.434 76.4714C571.398 79.2454 573.315 82.0539 575.184 84.8956L574.557 85.3077C576.419 88.1406 578.233 91.0068 579.998 93.905L580.639 93.5149C582.406 96.4181 584.124 99.3534 585.791 102.32L585.137 102.687C586.797 105.641 588.407 108.626 589.965 111.64L590.631 111.295C592.191 114.313 593.699 117.361 595.155 120.437L594.477 120.758C595.926 123.821 597.323 126.913 598.667 130.033L599.356 129.736C600.699 132.854 601.988 136 603.223 139.171L602.525 139.443C603.753 142.598 604.928 145.779 606.047 148.985L606.755 148.737C607.875 151.943 608.939 155.174 609.948 158.428L609.231 158.65C610.233 161.884 611.18 165.141 612.069 168.421L612.793 168.225C613.681 171.497 614.513 174.792 615.287 178.109L614.556 178.279C615.326 181.575 616.039 184.891 616.693 188.228L617.429 188.083C618.083 191.414 618.679 194.764 619.217 198.133L618.476 198.252C619.009 201.587 619.484 204.941 619.9 208.313L620.644 208.221C621.06 211.585 621.417 214.967 621.715 218.365L620.968 218.43C621.264 221.803 621.502 225.191 621.68 228.595L622.429 228.556Z" stroke="white" stroke-opacity="0.05" stroke-width="1.5" stroke-dasharray="10 10"/>
</g>
</svg>
