<svg width="52" height="53" viewBox="0 0 52 53" fill="none" xmlns="http://www.w3.org/2000/svg">
<path d="M26.0013 4.98175C27.7252 4.98175 29.3785 5.66657 30.5975 6.88556C31.8165 8.10454 32.5013 9.75784 32.5013 11.4818C32.5013 13.2057 31.8165 14.859 30.5975 16.0779C29.3785 17.2969 27.7252 17.9818 26.0013 17.9818C24.2774 17.9818 22.6241 17.2969 21.4051 16.0779C20.1861 14.859 19.5013 13.2057 19.5013 11.4818C19.5013 9.75784 20.1861 8.10454 21.4051 6.88556C22.6241 5.66657 24.2774 4.98175 26.0013 4.98175ZM26.0013 20.1484C29.533 20.1484 32.7613 20.9068 35.7513 22.4234C38.6546 23.9618 40.0846 25.8034 40.0846 27.9701V40.4718C40.0846 42.8984 38.2213 44.9351 34.4296 46.5601V41.8151C34.4296 39.7568 32.5663 38.3051 28.8396 37.4168C27.6263 37.1351 26.673 37.0051 26.0013 37.0051C24.1163 37.0051 22.318 37.3734 20.6713 38.1318C19.003 38.8684 18.0063 39.8218 17.6813 40.9701C20.5846 42.1184 23.358 42.7034 26.0013 42.7034L28.168 42.4868V48.1851L26.0013 48.3151C23.1007 48.3192 20.2308 47.7216 17.573 46.5601C13.7813 44.9351 11.918 42.8984 11.918 40.4718V27.9701C11.918 25.8034 13.348 23.9618 16.2513 22.4234C19.2413 20.9068 22.4913 20.1484 26.0013 20.1484ZM26.0013 24.4818C24.852 24.4818 23.7498 24.9383 22.9372 25.751C22.1245 26.5636 21.668 27.6658 21.668 28.8151C21.668 29.9644 22.1245 31.0666 22.9372 31.8792C23.7498 32.6919 24.852 33.1484 26.0013 33.1484C27.1506 33.1484 28.2528 32.6919 29.0654 31.8792C29.8781 31.0666 30.3346 29.9644 30.3346 28.8151C30.3346 27.6658 29.8781 26.5636 29.0654 25.751C28.2528 24.9383 27.1506 24.4818 26.0013 24.4818Z" fill="#F48462"/>
</svg>
