<svg width="88" height="88" viewBox="0 0 88 88" fill="none" xmlns="http://www.w3.org/2000/svg">
<mask id="mask0_15669_22386" style="mask-type:alpha" maskUnits="userSpaceOnUse" x="-1" y="0" width="89" height="88">
<path d="M-0.000976562 44C-0.000976562 19.6995 19.6985 0 43.999 0C68.2996 0 87.999 19.6995 87.999 44C87.999 68.3005 68.2996 88 43.999 88C19.6985 88 -0.000976562 68.3005 -0.000976562 44Z" fill="#7A7B88"/>
</mask>
<g mask="url(#mask0_15669_22386)">
<path d="M-0.000976562 44C-0.000976562 19.6995 19.6985 0 43.999 0C68.2996 0 87.999 19.6995 87.999 44C87.999 68.3005 68.2996 88 43.999 88C19.6985 88 -0.000976562 68.3005 -0.000976562 44Z" fill="#6D5AE6"/>
<rect x="72.2832" y="10.0591" width="8" height="88" transform="rotate(45 72.2832 10.0591)" fill="white"/>
<path d="M21.999 44C21.999 31.8497 31.8488 22 43.999 22C56.1493 22 65.999 31.8497 65.999 44C65.999 56.1503 56.1493 66 43.999 66C31.8488 66 21.999 56.1503 21.999 44Z" fill="white"/>
</g>
</svg>
