<svg width="28" height="29" viewBox="0 0 28 29" fill="none" xmlns="http://www.w3.org/2000/svg">
<path d="M14.0414 28.8864C12.9492 28.9151 12.0581 28.254 11.9432 27.4205C11.8569 26.7594 11.8569 26.084 11.8713 25.4229C11.9575 22.5342 10.506 20.2922 8.83892 18.1653C8.10597 17.2311 6.99937 16.8 5.79217 16.7712C4.74305 16.7425 3.67956 16.7569 2.63044 16.7425C2.15618 16.7281 1.66756 16.7281 1.20768 16.6275C0.589702 16.4982 0.0148218 15.7796 0.000450286 15.176C-0.0139212 14.5436 0.316623 14.0263 0.86274 13.8107C2.28552 13.2646 3.70831 12.6753 5.18857 12.3448C8.26407 11.655 9.85929 9.52798 10.8509 6.7974C11.0665 6.22254 10.9372 5.50396 10.9228 4.85724C10.894 3.6213 10.7791 2.38538 10.8222 1.14943C10.8366 0.545825 11.2821 0.100288 11.9288 0.0140591C12.5755 -0.0721699 13.0785 0.244003 13.3085 0.804491C13.6821 1.76738 14.0845 2.75901 14.2713 3.77938C15.2342 8.85252 19.8619 12.4742 25.0356 12.1436C25.5099 12.1149 25.9841 11.9999 26.4584 12.0286C27.0476 12.0574 27.5937 12.316 27.8381 12.9053C28.1255 13.5807 28.0392 14.2706 27.5075 14.7592C27.1051 15.1329 26.5734 15.4347 26.0416 15.5784C22.1038 16.6131 19.4738 19.3725 17.045 22.3474C16.4271 23.1091 16.2833 24.2731 15.9528 25.2648C15.6654 26.1702 15.5217 27.1331 15.1193 27.981C14.9325 28.4121 14.3145 28.6708 14.0414 28.8864ZM19.5457 14.9891C18.2522 14.1412 17.1025 13.4945 16.0678 12.7041C15.0474 11.9137 14.1276 10.9795 13.1216 10.0598C11.8713 11.5113 10.7216 12.8478 9.47128 14.2993C11.2965 15.4347 12.3312 17.0299 13.3228 18.6683C13.5959 19.1138 13.9983 19.4731 14.4294 19.9761C15.3636 19.0132 16.154 18.194 16.9732 17.3892C17.7924 16.5988 18.6259 15.8514 19.5457 14.9891Z" fill="#BC8DF9"/>
</svg>
