<svg width="24" height="24" viewBox="0 0 24 24" fill="none" xmlns="http://www.w3.org/2000/svg">
<path d="M22.5 3H1.5C0.947715 3 0.5 3.44772 0.5 4V20C0.5 20.5523 0.947715 21 1.5 21H22.5C23.0523 21 23.5 20.5523 23.5 20V4C23.5 3.44772 23.0523 3 22.5 3Z" fill="white"/>
<path d="M21.5 5.00391V13.0039H19V19.0039H2.5V5.00391H21.5Z" fill="#C2F3FF"/>
<path d="M6.29102 19.0039H19V13.0039H21.5V5.00391H20.291L6.29102 19.0039Z" fill="#66E1FF"/>
<path d="M23.5 8.5V20C23.5 20.2652 23.3946 20.5196 23.2071 20.7071C23.0196 20.8946 22.7652 21 22.5 21H1.5C1.23478 21 0.98043 20.8946 0.792893 20.7071C0.605357 20.5196 0.5 20.2652 0.5 20V4C0.5 3.73478 0.605357 3.48043 0.792893 3.29289C0.98043 3.10536 1.23478 3 1.5 3H19" stroke="#191919" stroke-width="0.6" stroke-linecap="round" stroke-linejoin="round"/>
<path d="M21.5 16.0039H19V19.0039H21.5V16.0039Z" fill="#FF808C"/>
<path d="M17 5.00391H2.5V19.0039H19" stroke="#191919" stroke-width="0.6" stroke-linecap="round" stroke-linejoin="round"/>
<path d="M21.5 13.0039H19V16.0039H21.5V13.0039Z" fill="#FFEF5E"/>
<path d="M21.5 13.0039V10.5039" stroke="#191919" stroke-width="0.6" stroke-linecap="round" stroke-linejoin="round"/>
<path d="M8 15C8.69223 15 9.36892 14.7947 9.9445 14.4101C10.5201 14.0256 10.9687 13.4789 11.2336 12.8394C11.4985 12.1999 11.5678 11.4961 11.4327 10.8172C11.2977 10.1382 10.9644 9.51461 10.4749 9.02513C9.98539 8.53564 9.36175 8.2023 8.68282 8.06725C8.00388 7.9322 7.30015 8.00151 6.66061 8.26642C6.02107 8.53133 5.47444 8.97993 5.08986 9.5555C4.70527 10.1311 4.5 10.8078 4.5 11.5C4.5 12.4283 4.86875 13.3185 5.52513 13.9749C6.1815 14.6313 7.07174 15 8 15Z" fill="#E3E3E3"/>
<path d="M8 13C8.29667 13 8.58668 12.912 8.83335 12.7472C9.08003 12.5824 9.27229 12.3481 9.38582 12.074C9.49935 11.7999 9.52906 11.4983 9.47118 11.2074C9.4133 10.9164 9.27044 10.6491 9.06066 10.4393C8.85088 10.2296 8.58361 10.0867 8.29264 10.0288C8.00166 9.97096 7.70006 10.0006 7.42597 10.1142C7.15189 10.2277 6.91762 10.42 6.7528 10.6666C6.58797 10.9133 6.5 11.2033 6.5 11.5C6.5 11.8978 6.65804 12.2794 6.93934 12.5607C7.22064 12.842 7.60218 13 8 13Z" fill="white"/>
<path d="M23.087 6.41296L18 11.5L15.5 12L16 9.49996L21.087 4.41296C21.3514 4.14855 21.7101 4 22.084 4C22.4579 4 22.8166 4.14855 23.081 4.41296L23.087 4.41896C23.3514 4.68339 23.5 5.04202 23.5 5.41596C23.5 5.78991 23.3514 6.14854 23.087 6.41296Z" fill="#808080"/>
<path d="M21.5 16.0039H19V19.0039H21.5V16.0039Z" stroke="#191919" stroke-width="0.6" stroke-linecap="round" stroke-linejoin="round"/>
<path d="M21.5 13.0039H19V16.0039H21.5V13.0039Z" stroke="#191919" stroke-width="0.6" stroke-linecap="round" stroke-linejoin="round"/>
<path d="M8 15C8.69223 15 9.36892 14.7947 9.9445 14.4101C10.5201 14.0256 10.9687 13.4789 11.2336 12.8394C11.4985 12.1999 11.5678 11.4961 11.4327 10.8172C11.2977 10.1382 10.9644 9.51461 10.4749 9.02513C9.98539 8.53564 9.36175 8.2023 8.68282 8.06725C8.00388 7.9322 7.30015 8.00151 6.66061 8.26642C6.02107 8.53133 5.47444 8.97993 5.08986 9.5555C4.70527 10.1311 4.5 10.8078 4.5 11.5C4.5 12.4283 4.86875 13.3185 5.52513 13.9749C6.1815 14.6313 7.07174 15 8 15Z" stroke="#191919" stroke-width="0.6" stroke-linecap="round" stroke-linejoin="round"/>
<path d="M8 13C8.29667 13 8.58668 12.912 8.83335 12.7472C9.08003 12.5824 9.27229 12.3481 9.38582 12.074C9.49935 11.7999 9.52906 11.4983 9.47118 11.2074C9.4133 10.9164 9.27044 10.6491 9.06066 10.4393C8.85088 10.2296 8.58361 10.0867 8.29264 10.0288C8.00166 9.97096 7.70006 10.0006 7.42597 10.1142C7.15189 10.2277 6.91762 10.42 6.7528 10.6666C6.58797 10.9133 6.5 11.2033 6.5 11.5C6.5 11.8978 6.65804 12.2794 6.93934 12.5607C7.22064 12.842 7.60218 13 8 13Z" stroke="#191919" stroke-width="0.6" stroke-linecap="round" stroke-linejoin="round"/>
<path d="M23.087 6.41296L18 11.5L15.5 12L16 9.49996L21.087 4.41296C21.3514 4.14855 21.7101 4 22.084 4C22.4579 4 22.8166 4.14855 23.081 4.41296L23.087 4.41896C23.3514 4.68339 23.5 5.04202 23.5 5.41596C23.5 5.78991 23.3514 6.14854 23.087 6.41296Z" stroke="#191919" stroke-width="0.6" stroke-linecap="round" stroke-linejoin="round"/>
</svg>
