<svg width="21" height="21" viewBox="0 0 21 21" fill="none" xmlns="http://www.w3.org/2000/svg">
<path d="M21 9.91089C20.696 11.4571 20.4846 13.0297 20.0749 14.5495C19.5331 16.5054 18.2644 17.9723 16.4803 18.9238C14.2733 20.1 11.9342 20.7739 9.39689 20.7211C7.9432 20.6946 6.5688 20.351 5.40585 19.5317C2.04914 17.1661 0.0535991 13.9548 0.000737591 9.76554C-0.0389086 6.59385 1.52053 4.4265 4.48077 3.3032C4.96974 3.11818 5.47191 2.90674 5.98731 2.84066C6.91239 2.73494 7.5996 2.32527 8.24716 1.6645C10.0577 -0.198866 12.3307 -0.344235 14.6037 0.475118C18.238 1.78344 20.3921 4.36043 20.7357 8.29862C20.7753 8.82723 20.8018 9.35585 20.8282 9.88446C20.8811 9.88446 20.9339 9.89767 21 9.91089ZM15.1324 3.475C14.868 4.04327 14.7755 4.77011 14.4187 4.9287C13.1633 5.51017 11.8681 6.68634 10.4673 5.08727C10.2823 4.87583 9.80655 4.80978 9.47616 4.84942C8.35285 4.98158 7.20313 5.08729 6.11947 5.40446C2.8817 6.36918 2.35308 8.91974 2.84204 11.1399C3.30458 13.2544 4.36183 15.0649 5.96089 16.5318C7.11063 17.589 8.48501 18.1309 10.0444 18.0383C11.9078 17.9326 13.6787 17.4437 15.3174 16.5186C16.2821 15.9767 16.9825 15.2103 17.3658 14.1927C18.2776 11.8271 18.3966 9.3955 17.7226 6.95066C17.3393 5.57626 16.6125 4.4133 15.1324 3.475ZM12.9386 2.72173C12.1457 2.29884 11.3263 1.58522 10.1634 2.53673C11.3131 2.61602 12.1193 2.66887 12.9386 2.72173Z" fill="#F8CC46"/>
</svg>
