<svg width="36" height="36" viewBox="0 0 36 36" fill="none" xmlns="http://www.w3.org/2000/svg">
<g clip-path="url(#clip0_17051_30308)">
<rect width="36" height="36" fill="white"/>
<circle cx="18" cy="18" r="18" fill="#112BF4"/>
<path d="M15.5422 20.4366C15.5422 19.0661 15.5422 17.7936 15.5422 16.4231C15.6401 14.6611 16.619 13.7801 18.1852 14.4653C18.9684 14.759 19.4578 14.8569 20.0451 14.5632C21.5135 13.7801 22.786 14.3674 24.1564 14.8569C25.0374 15.1506 25.5269 15.8358 25.8206 16.7168C26.6037 19.2619 26.6037 21.807 26.5058 24.3521C26.5058 25.0374 26.2121 25.5268 25.429 25.6247C25.2332 25.6247 25.1354 25.6247 24.9396 25.7226C22.1987 26.212 21.905 26.0162 22.1987 23.2753C22.2966 22.1007 22.4923 20.926 22.1987 19.7513C22.0029 19.164 21.8071 18.4788 21.024 18.3809C20.3388 18.283 19.8493 18.7725 19.4578 19.2619C19.0662 19.7513 18.9683 20.3387 18.9683 21.0239C18.9683 22.0028 18.9683 22.8838 18.9683 23.8627C18.9683 25.8205 18.8705 25.9184 17.1085 25.8205C15.4443 25.8205 15.4443 25.8205 15.4443 24.1563C15.5422 22.9817 15.5422 21.7091 15.5422 20.4366Z" fill="white"/>
<path d="M10.1584 20.2406C10.1584 18.8701 10.1584 17.5976 10.1584 16.2271C10.1584 15.0525 10.8437 14.8567 11.8226 14.7588C12.8993 14.7588 13.0951 15.3461 13.0951 16.2271C13.2909 18.7722 13.2909 21.3174 13.193 23.8625C13.193 24.7435 13.193 25.8203 11.8226 25.8203C10.6479 25.9181 10.0605 25.4287 10.0605 24.254C10.0605 22.8836 10.0605 21.4152 10.0605 20.0448C10.0605 20.2406 10.1584 20.2406 10.1584 20.2406Z" fill="white"/>
<path d="M11.0391 9.375C12.5074 9.375 13.2906 9.96233 13.2906 10.8433C13.2906 11.9201 12.018 13.1927 11.0391 13.1927C10.0602 13.1927 9.375 12.4096 9.375 11.3328C9.47289 10.0602 10.0602 9.375 11.0391 9.375Z" fill="white"/>
</g>
<defs>
<clipPath id="clip0_17051_30308">
<rect width="36" height="36" fill="white"/>
</clipPath>
</defs>
</svg>
