<svg width="107" height="107" viewBox="0 0 107 107" fill="none" xmlns="http://www.w3.org/2000/svg">
<path d="M67.6516 13.8563C66.5013 10.0845 57.1121 8.85404 51.6016 8.50629C46.3465 8.36887 41.1328 9.46844 36.3808 11.7163C32.0524 8.73343 27.0882 6.80086 21.8823 6.07204C16.3718 5.64404 6.9023 5.34979 5.1903 8.90754C3.6388 10.6998 2.6758 20.3833 2.06055 28.4618C1.4453 36.5403 0.803303 46.3308 2.06055 48.2835C3.18405 52.0553 11.3696 49.4873 18.3513 50.049C21.3562 50.3762 24.3333 50.9216 27.2591 51.6808C27.6871 54.543 30.9506 55.185 32.9033 55.3455C34.8561 55.506 38.2533 55.3455 39.0558 52.6705C42.0691 52.3778 45.0987 52.2885 48.1241 52.403C55.6943 52.9915 62.7831 56.7633 64.4951 53.2323C66.0733 51.5203 66.9828 41.7565 67.6248 33.678C68.2668 25.5995 68.9088 15.809 67.6516 13.8563Z" fill="#00BE7E" stroke="#00034A" stroke-width="1.5" stroke-miterlimit="10"/>
<path d="M27.126 17.4942C22.091 16.4909 16.9549 16.0868 11.825 16.2905" stroke="#00034A" stroke-width="1.5" stroke-miterlimit="10" stroke-linecap="square"/>
<path d="M26.2687 28.4088C21.2299 27.433 16.0971 27.0292 10.9677 27.2051" stroke="#00034A" stroke-width="1.5" stroke-miterlimit="10" stroke-linecap="square"/>
<path d="M25.3605 39.8043C20.3247 38.8053 15.1902 38.3924 10.0595 38.5738" stroke="#00034A" stroke-width="1.5" stroke-miterlimit="10" stroke-linecap="square"/>
<path d="M59.9211 20.0894C54.8859 19.0873 49.75 18.6833 44.6201 18.8857" stroke="#00034A" stroke-width="1.5" stroke-miterlimit="10" stroke-linecap="square"/>
<path d="M59.0657 31.0302C54.0295 30.0341 48.8954 29.6212 43.7647 29.7997" stroke="#00034A" stroke-width="1.5" stroke-miterlimit="10" stroke-linecap="square"/>
<path d="M58.1552 42.3982C53.1018 41.3963 47.9492 40.9834 42.8007 41.1677" stroke="#00034A" stroke-width="1.5" stroke-miterlimit="10" stroke-linecap="square"/>
<path d="M36.4068 11.6362L33.9726 42.2382" stroke="#00034A" stroke-width="1.5" stroke-miterlimit="10" stroke-linecap="square"/>
<path d="M82.5235 54.5162C75.6755 51.8412 66.099 48.7917 61.605 50.2094C58.4485 50.5839 49.3535 55.5594 43.2812 60.1604C37.209 64.7614 31.6717 71.0744 32.0462 72.8132C32.0462 72.8132 32.501 77.0129 32.9557 80.2764C33.2233 83.0084 33.8344 85.6957 34.7747 88.2747C35.0953 88.7352 35.5377 89.0974 36.0525 89.3207C36.5673 89.5441 37.134 89.6197 37.6893 89.5392C38.2446 89.4586 38.7666 89.2252 39.1967 88.8648C39.6268 88.5045 39.9481 88.0315 40.1247 87.4989C40.3033 84.7487 40.1144 81.987 39.563 79.2867C39.563 78.8587 39.1082 79.0727 44.4047 81.2127C45.6352 88.5154 46.7855 93.3304 48.23 95.4437C50.905 102.211 62.5145 101.462 69.1752 100.499C75.836 99.5364 87.1512 97.0219 87.9002 89.7994C88.676 87.3652 88.4352 82.4164 87.5792 75.0334C92.9292 70.6197 97.3697 65.3767 97.022 63.8252C97.878 61.0432 89.3447 57.1644 82.5235 54.5162Z" fill="#FFC904" stroke="#00034A" stroke-width="1.5" stroke-miterlimit="16"/>
<path d="M52.9502 82.2095L52.235 81.9839L51.7836 83.4143L52.4989 83.64L52.9502 82.2095ZM67.1428 84.931L66.9275 84.2125L66.9201 84.2149L67.1428 84.931ZM52.4989 83.64C55.2713 84.5148 58.1184 85.2754 60.6864 85.6914C63.2296 86.1035 65.6007 86.1959 67.3655 85.6472L66.9201 84.2149C65.5017 84.6559 63.4189 84.6146 60.9263 84.2108C58.4587 83.8109 55.6883 83.0735 52.9502 82.2095L52.4989 83.64ZM67.3581 85.6495C71.9612 84.2704 76.3197 82.1783 80.275 79.4494L79.4231 78.2147C75.5969 80.8546 71.3805 82.8785 66.9276 84.2126L67.3581 85.6495Z" fill="#00034A"/>
<path d="M64.7432 70.3171C67.7411 69.8867 69.9722 68.1507 69.7266 66.4398C69.4809 64.7288 66.8515 63.6907 63.8537 64.1211C60.8558 64.5515 58.6247 66.2874 58.8704 67.9984C59.116 69.7093 61.7454 70.7475 64.7432 70.3171Z" fill="white" stroke="#00034A" stroke-width="1.5" stroke-miterlimit="10"/>
<path d="M87.019 8.90744C89.5335 9.60294 93.2518 10.6997 89.0788 20.9182C84.9058 31.1367 82.3913 30.5214 81.0538 30.1737C79.7163 29.8259 77.282 29.1572 78.994 18.1629C80.706 7.16869 84.5045 8.21194 87.019 8.90744Z" fill="#000059"/>
<path d="M78.9933 41.3017C81.1503 41.3017 82.8988 39.5532 82.8988 37.3962C82.8988 35.2393 81.1503 33.4907 78.9933 33.4907C76.8364 33.4907 75.0878 35.2393 75.0878 37.3962C75.0878 39.5532 76.8364 41.3017 78.9933 41.3017Z" fill="#000059"/>
<path d="M103.604 23.3528C105.316 24.5031 107.831 26.2686 102.16 32.9026C96.4888 39.5366 94.7501 38.4666 93.8941 37.8781C93.0381 37.2896 91.2191 36.1661 95.3386 28.3551C99.4581 20.5441 101.892 22.2293 103.604 23.3528Z" fill="#000059"/>
<path d="M90.3358 46.7863C92.0347 46.7863 93.412 45.409 93.412 43.71C93.412 42.0111 92.0347 40.6338 90.3358 40.6338C88.6368 40.6338 87.2595 42.0111 87.2595 43.71C87.2595 45.409 88.6368 46.7863 90.3358 46.7863Z" fill="#000059"/>
</svg>
