<svg width="107" height="107" viewBox="0 0 107 107" fill="none" xmlns="http://www.w3.org/2000/svg">
<path d="M90.4961 55.3985C88.4898 53.5795 77.1211 51.4662 67.7318 50.744C58.3426 50.0217 46.7866 50.3695 44.5128 51.8407C40.0991 53.1782 39.1628 61.7115 38.7616 68.1315C38.3603 74.5515 37.6113 85.2782 41.7576 87.2845C45.043 88.9472 48.6068 89.9901 52.2703 90.3607L50.8258 96.7807C48.9533 97.1017 47.9903 97.5832 47.8566 99.4557C47.7228 101.328 48.4986 101.917 50.3176 102.345C50.9328 102.505 76.1046 104.511 77.0676 104.404C78.8598 104.244 79.7426 103.575 79.9566 101.943C80.1706 100.312 79.2076 99.536 77.4153 98.9207L76.9873 92.367C80.6373 92.5595 84.2915 92.0789 87.7676 90.9492C92.1813 89.6385 93.1176 78.9385 93.6793 72.5185C94.2411 66.0985 94.6423 57.4047 90.4961 55.3985Z" fill="#00BE7E" stroke="#00034A" stroke-width="1.5" stroke-miterlimit="10"/>
<path d="M82.4706 84.3689C85.7876 83.4594 86.3761 77.4674 86.7239 72.9199C87.0716 68.3724 87.4194 62.3804 84.2896 60.9626C82.7649 59.6786 74.2851 58.1539 67.1964 57.6189C60.1076 57.0839 51.4941 57.2711 49.7821 58.3144C46.4919 59.2239 45.9034 65.2159 45.5556 69.7366C45.2079 74.2574 44.8601 80.2761 47.9899 81.6939C49.4879 83.0046 57.9944 84.5294 65.0831 85.0644C72.1719 85.5994 80.7854 85.4121 82.4706 84.3689Z" fill="#F8CC46" stroke="#00034A" stroke-width="1.5" stroke-miterlimit="10"/>
<path d="M56.5769 96.487C59.1084 96.1717 61.6692 96.1717 64.2007 96.487C66.7443 96.5566 69.2693 96.943 71.7174 97.6372" stroke="#00034A" stroke-width="1.5" stroke-miterlimit="10" stroke-linecap="square"/>
<path d="M51.3877 20.7574C49.1675 16.2902 35.846 16.3704 28.1152 16.7717C22.7034 16.961 17.3252 17.705 12.0652 18.9919C10.7219 18.0853 9.10333 17.6783 7.49098 17.8417C6.73132 17.7908 5.96924 17.8949 5.25105 18.1476C4.53285 18.4004 3.87353 18.7964 3.31312 19.3118C2.75271 19.8272 2.30291 20.4511 1.99105 21.1457C1.67919 21.8402 1.51178 22.5909 1.49898 23.3522C1.07098 25.6527 1.49898 37.8774 2.16773 47.9889C2.83648 58.1004 3.37148 70.3252 4.04023 72.5989C4.11538 73.3781 4.35255 74.133 4.73653 74.8151C5.12051 75.4973 5.64282 76.0917 6.26996 76.5601C6.8971 77.0286 7.61523 77.3608 8.37829 77.5355C9.14135 77.7102 9.93249 77.7234 10.701 77.5744C12.2858 77.5469 13.814 76.9808 15.0345 75.9694C20.4324 76.7017 25.8909 76.881 31.3252 76.5044C39.056 76.1032 52.2972 74.8192 54.0627 70.1379C55.962 67.7572 55.534 55.5324 54.999 45.3942C54.464 35.2559 53.501 22.9509 51.3877 20.7574Z" fill="#6C98FA" stroke="#00034A" stroke-width="1.5" stroke-miterlimit="10"/>
<path d="M41.6237 28.5687C40.741 27.7394 35.3107 27.8999 32.1542 28.0604C28.9977 28.2209 23.5675 28.6222 22.7917 29.5584C21.9892 30.0399 22.0427 32.3939 22.123 34.3199C22.2032 36.2459 22.444 38.6267 23.2732 39.0279C24.1292 39.8572 29.5862 39.6967 32.7427 39.5362C35.8992 39.3757 41.3295 38.9744 42.1052 38.0382C42.9077 37.5567 42.8542 35.2027 42.7472 33.2499C42.6402 31.2972 42.453 28.9699 41.6237 28.5687Z" fill="#F8CC46" stroke="#00034A" stroke-width="1.5" stroke-miterlimit="10"/>
<path d="M11.8254 26.75C11.589 40.5324 12.3041 54.3146 13.9654 67.9985" stroke="#00034A" stroke-width="1.5" stroke-miterlimit="10" stroke-linecap="square"/>
<path d="M73.055 19.795C75.8176 19.795 78.0572 17.5554 78.0572 14.7928C78.0572 12.0301 75.8176 9.79053 73.055 9.79053C70.2923 9.79053 68.0527 12.0301 68.0527 14.7928C68.0527 17.5554 70.2923 19.795 73.055 19.795Z" fill="#00034A"/>
<path d="M56.5772 12.7062C59.3399 12.7062 61.5795 10.4666 61.5795 7.70391C61.5795 4.94124 59.3399 2.70166 56.5772 2.70166C53.8145 2.70166 51.575 4.94124 51.575 7.70391C51.575 10.4666 53.8145 12.7062 56.5772 12.7062Z" fill="#00034A"/>
<path d="M103.042 24.3161C102.48 23.4066 101.865 22.8716 100.822 23.0856C100.822 23.0856 99.5112 23.0588 96.3012 26.7503L95.793 27.3121C95.4038 26.2631 94.7384 25.3388 93.867 24.6371C92.6365 23.4066 87.6877 23.7276 84.1032 24.6371C80.5187 25.5466 75.891 27.1516 75.2757 28.7833C74.4173 31.3792 74.3428 34.1704 75.0617 36.8083C75.5052 39.5099 76.7331 42.0215 78.5927 44.0308C79.8232 45.2346 84.7452 44.9136 88.3297 44.0308C91.9142 43.1481 96.542 41.4896 97.184 39.8846C97.6607 38.8748 97.8812 37.7631 97.826 36.6478L98.5482 36.9688C100.258 37.8089 102.128 38.2741 104.032 38.3331C105.075 38.0923 105.423 37.3433 105.557 36.2733C105.528 34.2457 105.277 32.2274 104.808 30.2546C104.441 28.2158 103.849 26.2241 103.042 24.3161Z" fill="#7AD8B2" stroke="#00034A" stroke-width="1.5" stroke-miterlimit="10"/>
</svg>
