<svg width="151" height="32" viewBox="0 0 151 32" fill="none" xmlns="http://www.w3.org/2000/svg">
<path d="M0 9.19541C0 4.11693 4.11692 0 9.1954 0H21.8164C26.8949 0 31.0118 4.11692 31.0118 9.1954V21.8164C31.0118 26.8949 26.8949 31.0118 21.8164 31.0118H0V9.19541Z" fill="white"/>
<path fill-rule="evenodd" clip-rule="evenodd" d="M23.0169 12.1514C23.0983 12.3949 23.1595 12.6181 23.2002 12.8414C23.5054 14.1201 22.9154 15.2162 21.8778 15.6627L15.0621 17.3067L11.5627 18.1389L11.5528 18.1413C12.5724 20.2762 14.4389 21.1007 16.6488 20.5748C18.0526 20.2298 19.0902 19.5397 19.9244 18.5451C20.2296 18.2001 20.5144 17.9971 21.0434 17.855C22.1827 17.5709 23.1797 18.2204 23.4442 19.3773C23.6069 20.0674 23.4238 20.5951 23.139 21.0417C21.8979 22.7263 20.1279 24.005 17.5237 24.614C12.7998 25.7216 8.51655 23.592 6.74109 19.2958L6.74082 19.2959C6.73065 19.2857 6.72556 19.2705 6.72047 19.2553C6.71539 19.24 6.7103 19.2248 6.70013 19.2147C6.49667 18.7275 6.33391 18.1998 6.21184 17.6518L6.19149 17.5909C6.09988 17.1705 6.02477 16.7336 5.98102 16.295C5.97884 16.2908 5.97745 16.2862 5.97687 16.2811C5.94195 15.9718 5.92385 15.3405 5.92594 15.0539L5.9278 15.0535C5.98466 10.9506 8.49889 7.30905 12.7628 6.30581C17.8085 5.12859 21.2062 7.99045 22.6507 11.1771C22.7931 11.5018 22.9152 11.8266 23.0169 12.1514ZM10.769 14.0374C10.7692 14.0075 10.7742 13.9776 10.7792 13.9477C10.7843 13.9172 10.7893 13.8868 10.7893 13.8563C10.7893 13.8381 10.7935 13.8157 10.798 13.7911V13.7911C10.8035 13.761 10.8097 13.7274 10.8097 13.6939C10.8097 13.6635 10.8148 13.6381 10.8199 13.6128C10.8249 13.5874 10.83 13.562 10.83 13.5315C11.1149 11.9078 12.0508 10.7306 13.6987 10.3449C15.4688 9.939 16.954 10.7509 17.8492 12.334L10.7896 14.0592L10.7699 14.0639V14.0372L10.769 14.0374Z" fill="#144EF7"/>
<path d="M47.6884 24.2686C43.0624 25.3584 38.8862 22.9547 37.7619 18.2436L37.7298 18.1795C36.6697 13.789 38.9505 9.46239 43.4158 8.37276C48.62 7.15499 51.8324 10.8085 52.6034 14.0133C52.8925 15.2631 52.2179 16.3207 51.0614 16.6092L42.4199 18.6602C43.3194 20.5191 44.9256 21.2241 46.9174 20.7754C48.1702 20.487 49.0376 19.8781 49.7764 19.0128C50.0334 18.6923 50.2904 18.5321 50.7723 18.4039C51.7682 18.1795 52.6355 18.7244 52.8604 19.7178C52.9889 20.2947 52.8283 20.7754 52.6034 21.128C51.5112 22.6022 49.9692 23.7239 47.6884 24.2686ZM48.2987 14.3658C47.5599 12.4749 46.1143 11.4494 44.2832 11.8661C42.4521 12.3147 41.6168 13.853 41.7453 15.9362L48.2987 14.3658Z" fill="white"/>
<path d="M70.5617 22.0591C70.5617 23.309 69.598 24.3026 68.3451 24.3026C67.0923 24.3026 66.0964 23.3411 66.0964 22.0912V21.8989C65.0042 23.4051 63.5586 24.4627 61.1814 24.4627C57.5192 24.4949 53.9855 21.6105 53.9533 16.3546V16.2905C53.9212 11.0346 57.3585 8.11818 61.1171 8.11818C63.4943 8.11818 64.972 9.20781 66.0643 10.4577L66.0322 4.7531C66.0322 3.50329 66.9959 2.50977 68.2487 2.50977C69.5016 2.50977 70.4975 3.47117 70.4975 4.72106L70.5617 22.0591ZM58.4187 16.2905V16.3546C58.4187 18.9825 60.2176 20.7131 62.3057 20.6811C64.3938 20.6811 66.1285 18.9185 66.1285 16.3225V16.2584C66.1285 13.6305 64.3617 11.8999 62.2736 11.9319C60.1534 11.8999 58.3865 13.6305 58.4187 16.2905Z" fill="white"/>
<path d="M87.1998 21.995C87.1998 23.2449 86.236 24.2384 84.9834 24.2384C83.7305 24.2384 82.7347 23.277 82.7347 22.0271V21.8348C81.7067 23.1808 80.3574 24.3986 78.1087 24.3986C74.6714 24.4307 72.7118 22.2194 72.7118 18.5659L72.6797 10.4257C72.6797 9.17576 73.6434 8.18223 74.8963 8.18223C76.1491 8.18223 77.145 9.14373 77.145 10.3936L77.1771 17.1237C77.1771 19.2389 78.173 20.3285 79.9077 20.2965C81.6424 20.2965 82.7025 19.1748 82.6704 17.0917L82.6383 10.3615C82.6383 9.11169 83.602 8.11816 84.855 8.11816C86.1077 8.11816 87.1038 9.07957 87.1038 10.3295L87.1675 21.995H87.1998Z" fill="white"/>
<path d="M89.3867 4.62321C89.3867 3.37332 90.3505 2.37988 91.6031 2.37988C92.8558 2.37988 93.8518 3.34128 93.8518 4.59118L93.9165 14.3659L99.5059 9.0459C100.181 8.43697 100.663 8.02033 101.497 8.02033C102.718 8.02033 103.489 8.98183 103.489 10.0073C103.489 10.8085 103.072 11.3534 102.461 11.9622L98.9272 15.0069L103.168 20.6794C103.554 21.1922 103.746 21.6729 103.746 22.1216C103.746 23.3394 102.814 24.1726 101.658 24.1726C100.726 24.1726 100.277 23.8842 99.6989 23.1471L95.747 17.7951L93.9479 19.4295V21.9933C93.9479 23.2432 92.9841 24.2367 91.7315 24.2367C90.4788 24.2367 89.4827 23.2753 89.4827 22.0254L89.3867 4.62321Z" fill="white"/>
<path d="M103.969 16.1584V16.0942C103.937 11.5754 107.599 7.85788 112.514 7.85788C117.397 7.82584 121.06 11.4153 121.091 15.9661V16.0302C121.123 20.5489 117.461 24.2666 112.547 24.2666C107.696 24.2986 104.001 20.7092 103.969 16.1584ZM116.658 16.0942V16.0302C116.658 13.7227 114.956 11.6716 112.482 11.7037C109.912 11.7037 108.402 13.6586 108.402 16.0302V16.0942C108.402 18.4017 110.105 20.4528 112.578 20.4208C115.148 20.3887 116.69 18.4337 116.658 16.0942Z" fill="white"/>
<path d="M123.054 28.2438C122.379 28.0194 121.64 27.4747 121.608 26.385C121.608 25.2954 122.443 24.5582 123.375 24.5582C123.728 24.5582 123.889 24.5903 124.114 24.6865C124.499 24.8146 124.725 24.8788 125.046 24.8467C125.849 24.8467 126.202 24.6865 126.62 23.9173L126.748 23.5648L121.287 11.098C121.159 10.7776 121.062 10.393 121.062 10.0725C121.062 8.82263 121.994 7.92529 123.279 7.92529C124.436 7.92529 125.046 8.53413 125.431 9.59173L128.901 18.7575L131.182 12.1236C131.534 11.1942 132.177 10.425 133.334 10.393C134.49 10.393 135.454 11.2583 135.486 12.4441C135.486 12.7966 135.358 13.2773 135.293 13.5017L130.828 24.2058C129.511 27.4106 128.226 28.6284 125.528 28.6284C124.467 28.6604 123.793 28.5002 123.054 28.2438Z" fill="white"/>
<path d="M136.481 19.272V19.2079C136.448 15.7787 139.082 14.1443 142.809 14.1443C144.447 14.1443 145.507 14.4007 146.664 14.7853V14.5288C146.664 12.638 145.507 11.6445 143.258 11.6765C142.006 11.6765 141.01 11.8688 140.175 12.1572C139.95 12.2534 139.725 12.2855 139.533 12.2855C138.504 12.2855 137.669 11.5163 137.669 10.4907C137.669 9.68958 138.151 9.01658 138.858 8.72809C140.271 8.15128 141.781 7.89483 143.901 7.86279C146.375 7.86279 148.077 8.43969 149.234 9.59339C150.423 10.7472 150.968 12.5098 150.968 14.625L151 21.8037C151 23.0216 150.037 23.951 148.816 23.951C147.531 23.951 146.664 23.0536 146.664 22.1243V22.0922C145.604 23.31 144.126 24.1112 141.91 24.1112C138.954 24.0792 136.481 22.4127 136.481 19.272ZM146.761 18.1823V17.3812C145.957 17.0286 144.994 16.8043 143.901 16.8043C141.973 16.8043 140.818 17.6055 140.818 18.9835V19.0476C140.818 20.2654 141.845 20.9384 143.291 20.9384C145.379 20.9384 146.761 19.8168 146.761 18.1823Z" fill="white"/>
</svg>
