<svg width="107" height="22" viewBox="0 0 107 22" fill="none" xmlns="http://www.w3.org/2000/svg">
<path d="M33.831 16.5763C30.5548 17.348 27.5971 15.6457 26.8008 12.3092L26.778 12.2638C26.0272 9.15425 27.6426 6.0901 30.805 5.31839C34.4908 4.45589 36.7659 7.04339 37.3119 9.31313C37.5167 10.1983 37.0389 10.9473 36.2199 11.1516L30.0997 12.6043C30.7368 13.9207 31.8744 14.42 33.2849 14.1023C34.1723 13.898 34.7865 13.4668 35.3098 12.8539C35.4918 12.6269 35.6738 12.5135 36.0151 12.4227C36.7204 12.2638 37.3347 12.6496 37.494 13.3533C37.585 13.7618 37.4712 14.1023 37.3119 14.3519C36.5384 15.396 35.4463 16.1904 33.831 16.5763ZM34.2633 9.5628C33.74 8.22366 32.7162 7.49734 31.4193 7.79241C30.1225 8.11017 29.531 9.19964 29.622 10.675L34.2633 9.5628Z" fill="#112BF4"/>
<path d="M50.03 15.0124C50.03 15.8976 49.3474 16.6012 48.4601 16.6012C47.5728 16.6012 46.8675 15.9203 46.8675 15.0351V14.8989C46.094 15.9657 45.0702 16.7147 43.3866 16.7147C40.7929 16.7374 38.2902 14.6946 38.2675 10.9723V10.9269C38.2447 7.2045 40.6791 5.13903 43.3411 5.13903C45.0247 5.13903 46.0712 5.91075 46.8448 6.79594L46.822 2.75581C46.822 1.87061 47.5046 1.16699 48.3919 1.16699C49.2792 1.16699 49.9845 1.84791 49.9845 2.73311L50.03 15.0124ZM41.4299 10.9269V10.9723C41.4299 12.8334 42.704 14.0591 44.1829 14.0364C45.6617 14.0364 46.8903 12.7881 46.8903 10.9496V10.9042C46.8903 9.04299 45.639 7.81733 44.1601 7.84002C42.6585 7.81733 41.4072 9.04299 41.4299 10.9269Z" fill="#112BF4"/>
<path d="M61.8161 14.9666C61.8161 15.8518 61.1336 16.5555 60.2463 16.5555C59.359 16.5555 58.6537 15.8745 58.6537 14.9893V14.8532C57.9256 15.8064 56.9701 16.6689 55.3775 16.6689C52.9431 16.6916 51.5552 15.1255 51.5552 12.538L51.5325 6.77288C51.5325 5.88769 52.215 5.18407 53.1023 5.18407C53.9896 5.18407 54.6949 5.86499 54.6949 6.75019L54.7177 11.5166C54.7177 13.0147 55.423 13.7864 56.6515 13.7637C57.8801 13.7637 58.6309 12.9693 58.6082 11.4939L58.5854 6.72749C58.5854 5.84229 59.268 5.13867 60.1553 5.13867C61.0426 5.13867 61.7479 5.81959 61.7479 6.70479L61.7934 14.9666H61.8161Z" fill="#112BF4"/>
<path d="M63.3628 2.66108C63.3628 1.77588 64.0453 1.07227 64.9326 1.07227C65.8199 1.07227 66.5252 1.75319 66.5252 2.63838L66.5707 9.56109L70.5295 5.79332C71.0073 5.36207 71.3485 5.067 71.9401 5.067C72.8046 5.067 73.3507 5.74793 73.3507 6.47424C73.3507 7.04168 73.0549 7.42753 72.6226 7.85878L70.12 10.015L73.1231 14.0325C73.3962 14.3956 73.5327 14.7361 73.5327 15.0539C73.5327 15.9164 72.8729 16.5065 72.0538 16.5065C71.394 16.5065 71.0755 16.3022 70.666 15.7802L67.8676 11.9897L66.5935 13.1473V14.9631C66.5935 15.8483 65.9109 16.5519 65.0236 16.5519C64.1363 16.5519 63.431 15.871 63.431 14.9858L63.3628 2.66108Z" fill="#112BF4"/>
<path d="M73.6916 10.8339V10.7885C73.6688 7.58813 76.2625 4.95523 79.7434 4.95523C83.2017 4.93253 85.7953 7.47464 85.8181 10.6977V10.7431C85.8408 13.9434 83.2472 16.5763 79.7662 16.5763C76.3307 16.599 73.7143 14.0569 73.6916 10.8339ZM82.6784 10.7885V10.7431C82.6784 9.10885 81.4725 7.65622 79.7207 7.67892C77.9006 7.67892 76.8313 9.06346 76.8313 10.7431V10.7885C76.8313 12.4227 78.0371 13.8753 79.7889 13.8526C81.6091 13.8299 82.7011 12.4454 82.6784 10.7885Z" fill="#112BF4"/>
<path d="M87.2062 19.3901C86.7285 19.2313 86.2052 18.8454 86.1824 18.0737C86.1824 17.302 86.774 16.7799 87.4338 16.7799C87.684 16.7799 87.7978 16.8026 87.957 16.8707C88.2301 16.9615 88.3893 17.0069 88.6168 16.9842C89.1856 16.9842 89.4359 16.8707 89.7317 16.326L89.8227 16.0763L85.9549 7.24704C85.8639 7.02007 85.7957 6.7477 85.7957 6.52072C85.7957 5.63553 86.4554 5 87.3655 5C88.1846 5 88.6168 5.43125 88.8899 6.18026L91.347 12.6717L92.9624 7.97336C93.2126 7.31513 93.6677 6.7704 94.4867 6.7477C95.3058 6.7477 95.9883 7.36053 96.0111 8.20033C96.0111 8.45 95.9201 8.79046 95.8745 8.94935L92.7121 16.5303C91.7793 18.8 90.8692 19.6625 88.9581 19.6625C88.2073 19.6852 87.7295 19.5717 87.2062 19.3901Z" fill="#112BF4"/>
<path d="M96.7163 13.0353V12.99C96.6935 10.5613 98.5591 9.40377 101.198 9.40377C102.359 9.40377 103.109 9.58535 103.928 9.85772V9.67614C103.928 8.33699 103.109 7.63337 101.517 7.65607C100.63 7.65607 99.9242 7.79225 99.3327 7.99653C99.1734 8.06462 99.0142 8.08732 98.8777 8.08732C98.1496 8.08732 97.5581 7.54258 97.5581 6.81626C97.5581 6.24883 97.8993 5.77218 98.3999 5.56791C99.4009 5.15935 100.47 4.97778 101.972 4.95508C103.724 4.95508 104.93 5.36363 105.749 6.18074C106.59 6.99784 106.977 8.2462 106.977 9.74423L107 14.8284C107 15.6909 106.317 16.3492 105.453 16.3492C104.543 16.3492 103.928 15.7136 103.928 15.0554V15.0327C103.178 15.8952 102.131 16.4627 100.561 16.4627C98.4681 16.44 96.7163 15.2597 96.7163 13.0353ZM103.997 12.2636V11.6962C103.428 11.4465 102.745 11.2876 101.972 11.2876C100.607 11.2876 99.7877 11.8551 99.7877 12.8311V12.8765C99.7877 13.739 100.516 14.2156 101.54 14.2156C103.018 14.2156 103.997 13.4212 103.997 12.2636Z" fill="#112BF4"/>
<path d="M5.41553 10.0148L6.37109 9.81055L5.41553 10.0148C5.41553 10.0148 5.41553 10.0375 5.41553 10.0148Z" fill="#57CC99"/>
<path d="M19.1112 6.83896L11.8307 8.51857L13.8101 8.06462C13.6736 7.70146 13.5143 7.361 13.3323 7.04324C12.3313 5.27285 10.6704 4.36495 8.69105 4.8189C6.84818 5.25015 5.80161 6.5666 5.48309 8.38239C5.48309 8.45048 5.46034 8.49587 5.46034 8.56396C5.46034 8.63206 5.43759 8.70015 5.43759 8.74554C5.43759 8.81364 5.41484 8.88173 5.41484 8.94982L0 10.2436C0 5.59061 2.82118 1.43699 7.64448 0.302119C13.2868 -1.01433 17.0863 2.186 18.7017 5.74949C18.8609 6.11265 18.9974 6.47581 19.1112 6.83896Z" fill="#112BF4"/>
<path d="M19.2484 16.7804C17.8605 18.6643 15.8812 20.0942 12.969 20.7751C7.64516 22.0235 2.82186 19.5949 0.865234 14.7149L6.28007 13.4893L7.09913 13.3077L6.28007 13.512C7.41764 15.9179 9.51078 16.8485 11.9907 16.2583C13.5605 15.8725 14.7209 15.1008 15.6537 13.9886C15.9949 13.6027 16.3135 13.3758 16.905 13.2169C18.1791 12.8991 19.2939 13.6254 19.5897 14.9192C19.7717 15.6909 19.5669 16.281 19.2484 16.7804Z" fill="#00BE7E"/>
<path d="M6.28007 13.5146L0.865234 14.7176L6.28007 13.5146Z" fill="#439EF9"/>
<path d="M17.838 10.7651L10.2163 12.6036L6.30308 13.5342L0.910987 14.828C0.888236 14.8053 0.888236 14.7599 0.865484 14.7372C0.63797 14.1925 0.455959 13.6023 0.31945 12.9895L0.296698 12.9214C0.182941 12.3994 0.0919358 11.8546 0.0464329 11.3099H0.0691844C0.046433 10.9694 0.0236816 10.6063 0.0236816 10.2658L5.43852 8.97205L13.3333 7.04277L18.6799 5.74902C18.8391 6.11218 18.9756 6.47534 19.1121 6.8385C19.2031 7.11087 19.2714 7.36054 19.3169 7.61021C19.6582 9.04014 18.9984 10.2658 17.838 10.7651Z" fill="#195EF7"/>
</svg>
