<svg width="80" height="92" viewBox="0 0 80 92" fill="none" xmlns="http://www.w3.org/2000/svg">
<path d="M25.8203 89.9124C8.5917 85.3181 -1.30337 56.7702 3.00591 41.4067C5.70556 31.7818 18.1572 28.1552 26.9577 30.1667C36.0308 32.2406 42.7267 39.2147 46.0923 47.6288C47.1564 50.289 50.2717 57.3883 47.9656 60.2068C44.7488 64.1386 40.7715 53.5323 40.4055 52.3121C38.2754 45.2119 34.032 11.7122 49.7721 28.3603C54.5809 33.4466 57.1235 39.7611 59.2725 46.2907C60.0607 48.6855 61.5806 54.9695 59.0049 48.8331C56.8165 43.6196 46.1423 3.46985 61.2796 8.1552C67.3478 10.0334 69.6734 15.8768 71.5829 21.2685C72.9965 25.2597 71.5993 14.4164 71.5829 13.1061C71.5214 8.1876 71.2521 2 77.6043 2" stroke="#151726" stroke-width="4" stroke-linecap="round"/>
</svg>
