<svg width="107" height="107" viewBox="0 0 107 107" fill="none" xmlns="http://www.w3.org/2000/svg">
<path d="M101.06 31.9134C101.738 30.3688 102.102 28.7047 102.13 27.0181C105.875 24.9049 105.822 23.4871 105.233 21.6681C104.645 19.8491 103.869 18.6186 99.5889 18.9931C98.5833 17.636 97.3197 16.4906 95.8707 15.6226C95.8707 11.3159 94.6669 10.6471 92.7677 10.2726C90.8684 9.89815 89.4507 9.89815 87.6852 13.8571C86.0138 14.0505 84.3964 14.5685 82.9237 15.3819C79.2322 13.1884 78.0284 13.9106 76.6909 15.3819C75.3534 16.8531 74.7382 18.0569 77.2527 21.5611C76.9262 22.3402 76.6667 23.1456 76.4769 23.9686C76.2995 24.7956 76.201 25.6376 76.1827 26.4831C72.4377 28.5964 72.4912 29.9874 73.0797 31.8331C73.6682 33.6789 74.4707 34.8826 78.7507 34.5081C79.7464 35.8645 81.001 37.0101 82.4422 37.8786C82.4422 42.1854 83.6459 42.8541 85.5452 43.2286C87.4444 43.6031 88.8622 43.5764 90.6277 39.6174C92.2981 39.4371 93.9164 38.928 95.3892 38.1194C99.0807 40.2861 100.284 39.5639 101.622 38.1194C102.959 36.6749 103.575 35.4176 101.06 31.9134Z" fill="#000059"/>
<path d="M89.1565 33.1178C92.6727 33.1178 95.523 30.2674 95.523 26.7513C95.523 23.2351 92.6727 20.3848 89.1565 20.3848C85.6404 20.3848 82.79 23.2351 82.79 26.7513C82.79 30.2674 85.6404 33.1178 89.1565 33.1178Z" fill="white" stroke="#00034A" stroke-width="1.5" stroke-miterlimit="10"/>
<path d="M57.7269 22.1232C55.4125 20.6621 52.7331 19.8833 49.9961 19.8762C49.5587 17.9412 48.9407 16.0515 48.1504 14.232C47.6296 13.3082 46.8315 12.5716 45.8691 12.1264C44.9066 11.6812 43.8286 11.5498 42.7874 11.751C41.7462 11.9521 40.7946 12.4755 40.0673 13.2472C39.3399 14.0189 38.8736 14.9997 38.7344 16.051C38.5873 17.3844 38.5873 18.73 38.7344 20.0635C35.514 20.2924 32.3083 20.6943 29.1311 21.2672C25.9651 21.8666 22.8313 22.6255 19.7419 23.541C19.5297 22.2182 19.1892 20.9191 18.7254 19.6622C18.2512 18.6907 17.4703 17.9023 16.5033 17.4188C15.5364 16.9353 14.4371 16.7837 13.3754 16.9872C12.2612 17.1135 11.2255 17.6226 10.4449 18.4276C9.66435 19.2326 9.18736 20.2835 9.09538 21.401C9.0048 23.3773 9.11234 25.3578 9.41638 27.3127C6.87203 28.2794 4.64842 29.9379 2.99638 32.101C1.52513 34.776 0.74938 45.476 2.35438 54.3302C3.95938 63.1845 8.50688 72.9482 10.8341 74.901C14.4186 77.897 30.4954 77.576 39.2961 75.8372C48.0969 74.0985 63.3711 68.9357 65.5646 64.8697C67.0626 62.1947 67.8116 51.4947 66.2066 42.6405C64.6016 33.7862 60.0809 24.076 57.7269 22.1232Z" fill="#FFC904" stroke="#00034A" stroke-width="1.5" stroke-miterlimit="10"/>
<path d="M54.2752 61.5246C57.0839 58.8496 56.6292 54.6499 55.2382 46.9459C53.8472 39.2419 52.6969 35.0689 49.1659 33.5709C47.2132 31.8856 38.6799 32.9289 31.6982 34.2129C24.7164 35.4969 16.3437 37.7171 15.1399 40.1246C12.4649 42.7996 12.7592 46.9994 14.1769 54.6766C15.5947 62.3539 16.8519 66.5536 20.2492 68.0516C22.2019 69.7636 30.7084 68.6936 37.7169 67.4364C44.7254 66.1791 53.0447 63.9054 54.2752 61.5246Z" fill="white" stroke="#00034A" stroke-width="1.5" stroke-miterlimit="10"/>
<path d="M25.9482 40.125C25.9482 40.125 26.3762 44.9935 27.687 52.1625C28.9977 59.3315 30.362 64.0395 30.362 64.0395" stroke="#00034A" stroke-width="1.5" stroke-miterlimit="10" stroke-linecap="square"/>
<path d="M43.4696 61.5248C43.4696 61.5248 43.0416 56.6563 41.7308 49.4873C40.4201 42.3183 39.0558 37.6104 39.0558 37.6104" stroke="#00034A" stroke-width="1.5" stroke-miterlimit="10" stroke-linecap="square"/>
<path d="M48.1503 42.5596C48.1503 42.5596 42.2118 42.9876 33.5181 44.5926C28.6772 45.4453 23.8828 46.5435 19.1533 47.8828" stroke="#00034A" stroke-width="1.5" stroke-miterlimit="10" stroke-linecap="square"/>
<path d="M21.2138 59.0913C21.2138 59.0913 27.1256 58.6633 35.8461 57.0583C44.5666 55.4533 50.2643 53.7681 50.2643 53.7681" stroke="#00034A" stroke-width="1.5" stroke-miterlimit="10" stroke-linecap="square"/>
<path d="M49.0871 24.2891C55.6141 24.9043 55.2931 25.9476 56.6038 28.2748" stroke="white" stroke-width="1.5" stroke-miterlimit="10" stroke-linecap="round"/>
<path d="M76.0777 103.577C91.4423 103.577 103.898 91.1211 103.898 75.7565C103.898 60.392 91.4423 47.9365 76.0777 47.9365C60.7131 47.9365 48.2577 60.392 48.2577 75.7565C48.2577 91.1211 60.7131 103.577 76.0777 103.577Z" fill="#00BE7E" stroke="#00034A" stroke-width="1.5" stroke-miterlimit="10"/>
<path d="M76.0779 94.2943C86.316 94.2943 94.6156 85.9946 94.6156 75.7565C94.6156 65.5184 86.316 57.2188 76.0779 57.2188C65.8397 57.2188 57.5401 65.5184 57.5401 75.7565C57.5401 85.9946 65.8397 94.2943 76.0779 94.2943Z" fill="white" stroke="#00034A" stroke-width="1.5" stroke-miterlimit="10"/>
<path d="M78.2717 74.4456C78.7264 68.6944 77.6297 64.5214 75.8642 64.3609C74.0987 64.2004 72.4402 66.6614 71.9854 72.2254C71.4237 79.2071 74.3127 80.5714 78.9939 80.9726C83.6752 81.3739 86.7514 80.1701 86.8852 78.2976C87.0189 76.4251 85.3069 74.9004 78.2717 74.4456Z" fill="#00BE7E" stroke="#00034A" stroke-width="1.5" stroke-miterlimit="10"/>
<path d="M89.1571 55.7212C91.8922 56.6366 94.1835 58.546 95.5771 61.0712" stroke="white" stroke-width="1.5" stroke-miterlimit="10" stroke-linecap="round"/>
<path d="M31.8854 96.9423C34.6628 96.9423 36.9144 94.6907 36.9144 91.9133C36.9144 89.1358 34.6628 86.8843 31.8854 86.8843C29.1079 86.8843 26.8564 89.1358 26.8564 91.9133C26.8564 94.6907 29.1079 96.9423 31.8854 96.9423Z" fill="#F9FBAC" stroke="#00034A" stroke-width="1.5" stroke-miterlimit="10" stroke-linecap="round"/>
<path d="M64.4143 12.1451C66.8372 12.1451 68.8013 10.181 68.8013 7.75809C68.8013 5.33522 66.8372 3.37109 64.4143 3.37109C61.9915 3.37109 60.0273 5.33522 60.0273 7.75809C60.0273 10.181 61.9915 12.1451 64.4143 12.1451Z" fill="#F9FBAC" stroke="#00034A" stroke-width="1.5" stroke-miterlimit="10" stroke-linecap="round"/>
</svg>
